<svg width="1920" height="1115" viewBox="0 0 1920 1115" fill="none" xmlns="http://www.w3.org/2000/svg">
<path d="M0 0.6875L1920 1V1071L1862.07 1070.89H1857.93H1745.07H1740.93H1628.07H1623.93H1511.07H1506.93H1394.07H1389.93H1277.07H1272.93H1160.07H1155.93H1043.07H1038.93H926.065H921.935H809.065H804.935H692.065H687.935H575.065H570.935H458.065H453.934H341.065H336.935H224.065H219.935H107.065H102.935C102.935 1070.89 40.1985 1070.89 0 1070.89C0 652.951 0 0.6875 0 0.6875Z" fill="#297D7F"/>
<path d="M1857.93 1070.89H1745.07C1744.42 1072.47 1743.73 1074.03 1743 1075.55C1754.25 1098.86 1776.23 1114.69 1801.5 1114.69C1826.77 1114.69 1848.75 1098.86 1860 1075.55C1859.26 1074.03 1858.58 1072.47 1857.93 1070.89Z" fill="#297D7F"/>
<path d="M1628.07 1070.89C1627.42 1072.47 1626.73 1074.03 1626 1075.55C1637.25 1098.86 1659.23 1114.69 1684.5 1114.69C1709.77 1114.69 1731.75 1098.86 1743 1075.55C1742.26 1074.03 1741.58 1072.47 1740.93 1070.89H1628.07Z" fill="#297D7F"/>
<path d="M1394.07 1070.89C1393.42 1072.47 1392.73 1074.03 1392 1075.55C1403.25 1098.86 1425.23 1114.69 1450.5 1114.69C1475.77 1114.69 1497.75 1098.86 1509 1075.55C1508.26 1074.03 1507.58 1072.47 1506.93 1070.89H1394.07Z" fill="#297D7F"/>
<path d="M1626 1075.55C1625.26 1074.03 1624.58 1072.47 1623.93 1070.89H1511.07C1510.42 1072.47 1509.73 1074.03 1509 1075.55C1520.25 1098.86 1542.23 1114.69 1567.5 1114.69C1592.77 1114.69 1614.75 1098.86 1626 1075.55Z" fill="#297D7F"/>
<path d="M1277.07 1070.89C1276.42 1072.47 1275.73 1074.03 1275 1075.55C1286.25 1098.86 1308.23 1114.69 1333.5 1114.69C1358.77 1114.69 1380.75 1098.86 1392 1075.55C1391.26 1074.03 1390.58 1072.47 1389.93 1070.89H1277.07Z" fill="#297D7F"/>
<path d="M1160.07 1070.89C1159.42 1072.47 1158.73 1074.03 1158 1075.55C1169.25 1098.86 1191.23 1114.69 1216.5 1114.69C1241.77 1114.69 1263.75 1098.86 1275 1075.55C1274.26 1074.03 1273.58 1072.47 1272.93 1070.89H1160.07Z" fill="#297D7F"/>
<path d="M1043.07 1070.89C1042.42 1072.47 1041.73 1074.03 1041 1075.55C1052.25 1098.86 1074.23 1114.69 1099.5 1114.69C1124.77 1114.69 1146.75 1098.86 1158 1075.55C1157.27 1074.03 1156.58 1072.47 1155.93 1070.89H1043.07Z" fill="#297D7F"/>
<path d="M809.065 1070.89C808.424 1072.47 807.735 1074.03 807 1075.55C818.253 1098.86 840.231 1114.69 865.5 1114.69C890.769 1114.69 912.747 1098.86 924 1075.55C923.265 1074.03 922.576 1072.47 921.935 1070.89H809.065Z" fill="#297D7F"/>
<path d="M692.065 1070.89C691.424 1072.47 690.735 1074.03 690 1075.55C701.253 1098.86 723.231 1114.69 748.5 1114.69C773.769 1114.69 795.747 1098.86 807 1075.55C806.265 1074.03 805.576 1072.47 804.935 1070.89H692.065Z" fill="#297D7F"/>
<path d="M575.065 1070.89C574.424 1072.47 573.735 1074.03 573 1075.55C584.253 1098.86 606.231 1114.69 631.5 1114.69C656.769 1114.69 678.747 1098.86 690 1075.55C689.265 1074.03 688.576 1072.47 687.935 1070.89H575.065Z" fill="#297D7F"/>
<path d="M458.065 1070.89C457.424 1072.47 456.735 1074.03 456 1075.55C467.253 1098.86 489.231 1114.69 514.5 1114.69C539.769 1114.69 561.747 1098.86 573 1075.55C572.265 1074.03 571.576 1072.47 570.935 1070.89H458.065Z" fill="#297D7F"/>
<path d="M341.065 1070.89C340.424 1072.47 339.735 1074.03 339 1075.55C350.253 1098.86 372.231 1114.69 397.5 1114.69C422.769 1114.69 444.747 1098.86 456 1075.55C455.265 1074.03 454.576 1072.47 453.934 1070.89H341.065Z" fill="#297D7F"/>
<path d="M224.065 1070.89C223.424 1072.47 222.735 1074.03 222 1075.55C233.253 1098.86 255.231 1114.69 280.5 1114.69C305.769 1114.69 327.747 1098.86 339 1075.55C338.265 1074.03 337.576 1072.47 336.935 1070.89H224.065Z" fill="#297D7F"/>
<path d="M107.065 1070.89C106.424 1072.47 105.735 1074.03 105 1075.55C116.253 1098.86 138.231 1114.69 163.5 1114.69C188.769 1114.69 210.747 1098.86 222 1075.55C221.265 1074.03 220.576 1072.47 219.935 1070.89H107.065Z" fill="#297D7F"/>
<path d="M456 1075.55C456.735 1074.03 457.424 1072.47 458.065 1070.89H453.934C454.576 1072.47 455.265 1074.03 456 1075.55Z" fill="#297D7F"/>
<path d="M339 1075.55C339.735 1074.03 340.424 1072.47 341.065 1070.89H336.935C337.576 1072.47 338.265 1074.03 339 1075.55Z" fill="#297D7F"/>
<path d="M222 1075.55C222.735 1074.03 223.424 1072.47 224.065 1070.89H219.935C220.576 1072.47 221.265 1074.03 222 1075.55Z" fill="#297D7F"/>
<path d="M105 1075.55C105.735 1074.03 106.424 1072.47 107.065 1070.89H102.935C103.576 1072.47 104.265 1074.03 105 1075.55Z" fill="#297D7F"/>
<path d="M573 1075.55C573.735 1074.03 574.424 1072.47 575.065 1070.89H570.935C571.576 1072.47 572.265 1074.03 573 1075.55Z" fill="#297D7F"/>
<path d="M690 1075.55C690.735 1074.03 691.424 1072.47 692.065 1070.89H687.935C688.576 1072.47 689.265 1074.03 690 1075.55Z" fill="#297D7F"/>
<path d="M807 1075.55C807.735 1074.03 808.424 1072.47 809.065 1070.89H804.935C805.576 1072.47 806.265 1074.03 807 1075.55Z" fill="#297D7F"/>
<path d="M982.5 1114.69C1007.77 1114.69 1029.75 1098.86 1041 1075.55C1040.27 1074.03 1039.58 1072.47 1038.93 1070.89H926.065C925.424 1072.47 924.735 1074.03 924 1075.55C935.253 1098.86 957.231 1114.69 982.5 1114.69Z" fill="#297D7F"/>
<path d="M924 1075.55C924.735 1074.03 925.424 1072.47 926.065 1070.89H921.935C922.576 1072.47 923.265 1074.03 924 1075.55Z" fill="#297D7F"/>
<path d="M1041 1075.55C1041.73 1074.03 1042.42 1072.47 1043.07 1070.89H1038.93C1039.58 1072.47 1040.27 1074.03 1041 1075.55Z" fill="#297D7F"/>
<path d="M1158 1075.55C1158.73 1074.03 1159.42 1072.47 1160.07 1070.89H1155.93C1156.58 1072.47 1157.27 1074.03 1158 1075.55Z" fill="#297D7F"/>
<path d="M1275 1075.55C1275.73 1074.03 1276.42 1072.47 1277.07 1070.89H1272.93C1273.58 1072.47 1274.26 1074.03 1275 1075.55Z" fill="#297D7F"/>
<path d="M1392 1075.55C1392.73 1074.03 1393.42 1072.47 1394.07 1070.89H1389.93C1390.58 1072.47 1391.26 1074.03 1392 1075.55Z" fill="#297D7F"/>
<path d="M1506.93 1070.89C1507.58 1072.47 1508.26 1074.03 1509 1075.55C1509.73 1074.03 1510.42 1072.47 1511.07 1070.89H1506.93Z" fill="#297D7F"/>
<path d="M1626 1075.55C1626.73 1074.03 1627.42 1072.47 1628.07 1070.89H1623.93C1624.58 1072.47 1625.26 1074.03 1626 1075.55Z" fill="#297D7F"/>
<path d="M1743 1075.55C1743.73 1074.03 1744.42 1072.47 1745.07 1070.89H1740.93C1741.58 1072.47 1742.26 1074.03 1743 1075.55Z" fill="#297D7F"/>
<path d="M1857.93 1070.89C1858.58 1072.47 1859.26 1074.03 1860 1075.55C1860.73 1074.03 1861.42 1072.47 1862.07 1070.89H1857.93Z" fill="#297D7F"/>
<path d="M1860 1075.55C1871.25 1098.86 1894.73 1115 1920 1115V1071L1862.07 1070.89C1861.42 1072.47 1860.73 1074.03 1860 1075.55Z" fill="#297D7F"/>
<path d="M46.5 1114.69C71.7693 1114.69 93.7468 1098.86 105 1075.55C104.265 1074.03 103.576 1072.47 102.935 1070.89H0C9.5 1114.69 46.5 1114.69 46.5 1114.69Z" fill="#297D7F"/>
</svg>
