<svg width="390" height="390" viewBox="0 0 390 390" fill="none" xmlns="http://www.w3.org/2000/svg">
<path d="M11.699 40.9463C4.74779 37.3326 0 30.0656 0 21.6896C0 9.71077 9.71077 0 21.6896 0C30.0656 0 37.3326 4.7478 40.9463 11.699C44.56 4.7478 51.8271 0 60.203 0C68.579 0 75.846 4.74779 79.4597 11.699C83.0735 4.74779 90.3405 0 98.7164 0C107.092 0 114.359 4.7478 117.973 11.699C121.587 4.7478 128.854 0 137.23 0C145.606 0 152.873 4.74779 156.487 11.699C160.1 4.74779 167.367 0 175.743 0C184.119 0 191.386 4.7478 195 11.699C198.614 4.7478 205.881 0 214.257 0C222.633 0 229.9 4.74779 233.513 11.699C237.127 4.74779 244.394 0 252.77 0C261.146 0 268.413 4.74779 272.027 11.699C275.641 4.74779 282.908 0 291.284 0C299.659 0 306.927 4.7478 310.54 11.699C314.154 4.7478 321.421 0 329.797 0C338.173 0 345.44 4.74779 349.054 11.699C352.667 4.74779 359.934 0 368.31 0C380.289 0 390 9.71077 390 21.6896C390 30.0656 385.252 37.3326 378.301 40.9463C385.252 44.56 390 51.8271 390 60.203C390 68.579 385.252 75.846 378.301 79.4598C385.252 83.0735 390 90.3405 390 98.7165C390 107.092 385.252 114.359 378.301 117.973C385.252 121.587 390 128.854 390 137.23C390 145.606 385.252 152.873 378.301 156.487C385.252 160.1 390 167.367 390 175.743C390 184.119 385.252 191.386 378.301 195C385.252 198.614 390 205.881 390 214.257C390 222.633 385.252 229.9 378.301 233.513C385.252 237.127 390 244.394 390 252.77C390 261.146 385.252 268.413 378.301 272.027C385.252 275.641 390 282.908 390 291.284C390 299.659 385.252 306.927 378.301 310.54C385.252 314.154 390 321.421 390 329.797C390 338.173 385.252 345.44 378.301 349.054C385.252 352.667 390 359.934 390 368.31C390 380.289 380.289 390 368.31 390C359.934 390 352.667 385.252 349.054 378.301C345.44 385.252 338.173 390 329.797 390C321.421 390 314.154 385.252 310.54 378.301C306.927 385.252 299.659 390 291.284 390C282.908 390 275.641 385.252 272.027 378.301C268.413 385.252 261.146 390 252.77 390C244.394 390 237.127 385.252 233.513 378.301C229.9 385.252 222.633 390 214.257 390C205.881 390 198.614 385.252 195 378.301C191.386 385.252 184.119 390 175.743 390C167.367 390 160.1 385.252 156.487 378.301C152.873 385.252 145.606 390 137.23 390C128.854 390 121.587 385.252 117.973 378.301C114.359 385.252 107.092 390 98.7165 390C90.3405 390 83.0735 385.252 79.4597 378.301C75.846 385.252 68.579 390 60.203 390C51.8271 390 44.56 385.252 40.9463 378.301C37.3326 385.252 30.0656 390 21.6896 390C9.71077 390 0 380.289 0 368.31C0 359.934 4.7478 352.667 11.699 349.054C4.7478 345.44 0 338.173 0 329.797C0 321.421 4.7478 314.154 11.699 310.54C4.74779 306.927 0 299.659 0 291.284C0 282.908 4.7478 275.641 11.699 272.027C4.74779 268.413 0 261.146 0 252.77C0 244.394 4.7478 237.127 11.699 233.513C4.7478 229.9 0 222.633 0 214.257C0 205.881 4.7478 198.614 11.699 195C4.74779 191.386 0 184.119 0 175.743C0 167.367 4.74779 160.1 11.699 156.487C4.74779 152.873 0 145.606 0 137.23C0 128.854 4.7478 121.587 11.699 117.973C4.7478 114.359 0 107.092 0 98.7164C0 90.3405 4.74779 83.0735 11.699 79.4597C4.74779 75.846 0 68.579 0 60.203C0 51.8271 4.7478 44.56 11.699 40.9463Z" fill="white"/>
</svg>
