<svg width="1920" height="993" viewBox="0 0 1920 993" fill="none" xmlns="http://www.w3.org/2000/svg">
<path d="M0 0.11377H1920L1920 953.114H1863.52H1859.39H1746.43H1742.3H1629.34H1625.2H1512.25H1508.11H1395.16H1391.02H1278.06H1273.93H1160.97H1156.84H1043.88H1039.75H926.79H922.656H809.698H805.564H692.607H688.473H575.515H571.381H458.424H454.29H341.332H337.198H224.241H220.107H107.149H103.015C103.015 953.114 40.2299 953.114 0 953.114C0 580.944 0 0.11377 0 0.11377Z" fill="#E61B44"/>
<path d="M1859.39 953.114H1746.43C1745.79 954.524 1745.1 955.908 1744.36 957.263C1755.62 978.02 1777.62 992.114 1802.91 992.114C1828.2 992.114 1850.19 978.02 1861.45 957.263C1860.72 955.908 1860.03 954.524 1859.39 953.114Z" fill="#E61B44"/>
<path d="M1629.34 953.114C1628.7 954.524 1628.01 955.908 1627.27 957.263C1638.53 978.02 1660.53 992.114 1685.82 992.114C1711.11 992.114 1733.1 978.02 1744.36 957.263C1743.63 955.908 1742.94 954.524 1742.3 953.114H1629.34Z" fill="#E61B44"/>
<path d="M1395.16 953.114C1394.51 954.524 1393.82 955.908 1393.09 957.263C1404.35 978.02 1426.35 992.114 1451.63 992.114C1476.92 992.114 1498.92 978.02 1510.18 957.263C1509.44 955.908 1508.75 954.524 1508.11 953.114H1395.16Z" fill="#E61B44"/>
<path d="M1627.27 957.263C1626.54 955.908 1625.85 954.524 1625.2 953.114H1512.25C1511.61 954.524 1510.92 955.908 1510.18 957.263C1521.44 978.02 1543.44 992.114 1568.73 992.114C1594.01 992.114 1616.01 978.02 1627.27 957.263Z" fill="#E61B44"/>
<path d="M1278.06 953.114C1277.42 954.524 1276.73 955.908 1276 957.263C1287.26 978.02 1309.25 992.114 1334.54 992.114C1359.83 992.114 1381.83 978.02 1393.09 957.263C1392.35 955.908 1391.66 954.524 1391.02 953.114H1278.06Z" fill="#E61B44"/>
<path d="M1160.97 953.114C1160.33 954.524 1159.64 955.908 1158.91 957.263C1170.17 978.02 1192.16 992.114 1217.45 992.114C1242.74 992.114 1264.73 978.02 1276 957.263C1275.26 955.908 1274.57 954.524 1273.93 953.114H1160.97Z" fill="#E61B44"/>
<path d="M1043.88 953.114C1043.24 954.524 1042.55 955.908 1041.81 957.263C1053.08 978.02 1075.07 992.114 1100.36 992.114C1125.65 992.114 1147.64 978.02 1158.91 957.263C1158.17 955.908 1157.48 954.524 1156.84 953.114H1043.88Z" fill="#E61B44"/>
<path d="M809.698 953.114C809.056 954.524 808.367 955.908 807.631 957.263C818.893 978.02 840.888 992.114 866.177 992.114C891.466 992.114 913.461 978.02 924.723 957.263C923.987 955.908 923.297 954.524 922.656 953.114H809.698Z" fill="#E61B44"/>
<path d="M692.607 953.114C691.965 954.524 691.275 955.908 690.54 957.263C701.802 978.02 723.796 992.114 749.085 992.114C774.374 992.114 796.369 978.02 807.631 957.263C806.896 955.908 806.206 954.524 805.564 953.114H692.607Z" fill="#E61B44"/>
<path d="M575.515 953.114C574.873 954.524 574.184 955.908 573.448 957.263C584.71 978.02 606.705 992.114 631.994 992.114C657.283 992.114 679.278 978.02 690.54 957.263C689.804 955.908 689.114 954.524 688.473 953.114H575.515Z" fill="#E61B44"/>
<path d="M458.424 953.114C457.782 954.524 457.092 955.908 456.357 957.263C467.618 978.02 489.613 992.114 514.902 992.114C540.191 992.114 562.186 978.02 573.448 957.263C572.713 955.908 572.023 954.524 571.381 953.114H458.424Z" fill="#E61B44"/>
<path d="M341.332 953.114C340.69 954.524 340.001 955.908 339.265 957.263C350.527 978.02 372.522 992.114 397.811 992.114C423.1 992.114 445.095 978.02 456.357 957.263C455.621 955.908 454.931 954.524 454.29 953.114H341.332Z" fill="#E61B44"/>
<path d="M224.241 953.114C223.599 954.524 222.909 955.908 222.174 957.263C233.436 978.02 255.43 992.114 280.719 992.114C306.008 992.114 328.003 978.02 339.265 957.263C338.53 955.908 337.84 954.524 337.198 953.114H224.241Z" fill="#E61B44"/>
<path d="M107.149 953.114C106.507 954.524 105.818 955.908 105.082 957.263C116.344 978.02 138.339 992.114 163.628 992.114C188.917 992.114 210.912 978.02 222.174 957.263C221.438 955.908 220.748 954.524 220.107 953.114H107.149Z" fill="#E61B44"/>
<path d="M456.357 957.263C457.092 955.908 457.782 954.524 458.424 953.114H454.29C454.931 954.524 455.621 955.908 456.357 957.263Z" fill="#E61B44"/>
<path d="M339.265 957.263C340.001 955.908 340.69 954.524 341.332 953.114H337.198C337.84 954.524 338.53 955.908 339.265 957.263Z" fill="#E61B44"/>
<path d="M222.174 957.263C222.909 955.908 223.599 954.524 224.241 953.114H220.107C220.748 954.524 221.438 955.908 222.174 957.263Z" fill="#E61B44"/>
<path d="M105.082 957.263C105.818 955.908 106.507 954.524 107.149 953.114H103.015C103.657 954.524 104.347 955.908 105.082 957.263Z" fill="#E61B44"/>
<path d="M573.448 957.263C574.184 955.908 574.873 954.524 575.515 953.114H571.381C572.023 954.524 572.713 955.908 573.448 957.263Z" fill="#E61B44"/>
<path d="M690.54 957.263C691.275 955.908 691.965 954.524 692.607 953.114H688.473C689.114 954.524 689.804 955.908 690.54 957.263Z" fill="#E61B44"/>
<path d="M807.631 957.263C808.367 955.908 809.056 954.524 809.698 953.114H805.564C806.206 954.524 806.896 955.908 807.631 957.263Z" fill="#E61B44"/>
<path d="M983.268 992.114C1008.56 992.114 1030.55 978.02 1041.81 957.263C1041.08 955.908 1040.39 954.524 1039.75 953.114H926.79C926.148 954.524 925.458 955.908 924.723 957.263C935.985 978.02 957.979 992.114 983.268 992.114Z" fill="#E61B44"/>
<path d="M924.723 957.263C925.458 955.908 926.148 954.524 926.79 953.114H922.656C923.297 954.524 923.987 955.908 924.723 957.263Z" fill="#E61B44"/>
<path d="M1041.81 957.263C1042.55 955.908 1043.24 954.524 1043.88 953.114H1039.75C1040.39 954.524 1041.08 955.908 1041.81 957.263Z" fill="#E61B44"/>
<path d="M1158.91 957.263C1159.64 955.908 1160.33 954.524 1160.97 953.114H1156.84C1157.48 954.524 1158.17 955.908 1158.91 957.263Z" fill="#E61B44"/>
<path d="M1276 957.263C1276.73 955.908 1277.42 954.524 1278.06 953.114H1273.93C1274.57 954.524 1275.26 955.908 1276 957.263Z" fill="#E61B44"/>
<path d="M1393.09 957.263C1393.82 955.908 1394.51 954.524 1395.16 953.114H1391.02C1391.66 954.524 1392.35 955.908 1393.09 957.263Z" fill="#E61B44"/>
<path d="M1508.11 953.114C1508.75 954.524 1509.44 955.908 1510.18 957.263C1510.92 955.908 1511.61 954.524 1512.25 953.114H1508.11Z" fill="#E61B44"/>
<path d="M1627.27 957.263C1628.01 955.908 1628.7 954.524 1629.34 953.114H1625.2C1625.85 954.524 1626.54 955.908 1627.27 957.263Z" fill="#E61B44"/>
<path d="M1744.36 957.263C1745.1 955.908 1745.79 954.524 1746.43 953.114H1742.3C1742.94 954.524 1743.63 955.908 1744.36 957.263Z" fill="#E61B44"/>
<path d="M1859.39 953.114C1860.03 954.524 1860.72 955.908 1861.45 957.263C1862.19 955.908 1862.88 954.524 1863.52 953.114H1859.39Z" fill="#E61B44"/>
<path d="M1861.45 957.263C1872.72 978.02 1894.71 992.114 1920 992.114L1920 953.114H1863.52C1862.88 954.524 1862.19 955.908 1861.45 957.263Z" fill="#E61B44"/>
<path d="M46.5364 992.114C71.8255 992.114 93.8201 978.02 105.082 957.263C104.347 955.908 103.657 954.524 103.015 953.114H0C9.50743 992.114 46.5364 992.114 46.5364 992.114Z" fill="#E61B44"/>
</svg>
