<svg width="430" height="824" viewBox="0 0 430 824" fill="none" xmlns="http://www.w3.org/2000/svg">
<path d="M12.8989 86.5122C5.23475 78.8771 0 63.5231 0 45.8263C0 20.5171 10.7067 0 23.9142 0C33.1492 0 41.1616 10.0312 45.1459 24.7178C49.1303 10.0312 57.1427 0 66.3777 0C75.6127 0 83.6251 10.0312 87.6095 24.7178C91.5938 10.0312 99.6062 0 108.841 0C118.076 0 126.089 10.0312 130.073 24.7178C134.057 10.0312 142.07 0 151.305 0C160.54 0 168.552 10.0312 172.536 24.7178C176.521 10.0312 184.533 0 193.768 0C203.003 0 211.016 10.0313 215 24.7179C218.984 10.0313 226.997 0 236.232 0C245.467 0 253.479 10.0312 257.464 24.7178C261.448 10.0312 269.46 0 278.695 0C287.93 0 295.943 10.0312 299.927 24.7178C303.911 10.0312 311.924 0 321.159 0C330.394 0 338.406 10.0313 342.391 24.7179C346.375 10.0313 354.387 0 363.622 0C372.857 0 380.87 10.0312 384.854 24.7178C388.838 10.0312 396.851 0 406.086 0C419.293 0 430 20.5171 430 45.8263C430 63.5231 424.765 78.8771 417.101 86.5122C424.765 94.1474 430 109.501 430 127.198C430 144.895 424.765 160.249 417.101 167.884C424.765 175.519 430 190.873 430 208.57C430 226.267 424.765 241.621 417.101 249.256C424.765 256.891 430 272.245 430 289.942C430 307.639 424.765 322.993 417.101 330.628C424.765 338.263 430 353.617 430 371.314C430 389.011 424.765 404.365 417.101 412C424.765 419.635 430 434.989 430 452.686C430 470.383 424.765 485.737 417.101 493.372C424.765 501.007 430 516.361 430 534.058C430 551.755 424.765 567.109 417.101 574.744C424.765 582.379 430 597.733 430 615.43C430 633.127 424.765 648.481 417.101 656.116C424.765 663.751 430 679.105 430 696.802C430 714.499 424.765 729.853 417.101 737.488C424.765 745.123 430 760.477 430 778.174C430 803.483 419.293 824 406.086 824C396.851 824 388.838 813.969 384.854 799.282C380.87 813.969 372.857 824 363.622 824C354.387 824 346.375 813.969 342.391 799.282C338.406 813.969 330.394 824 321.159 824C311.924 824 303.911 813.969 299.927 799.282C295.943 813.969 287.93 824 278.695 824C269.46 824 261.448 813.969 257.464 799.282C253.479 813.969 245.467 824 236.232 824C226.997 824 218.984 813.969 215 799.282C211.016 813.969 203.003 824 193.768 824C184.533 824 176.521 813.969 172.536 799.282C168.552 813.969 160.54 824 151.305 824C142.07 824 134.057 813.969 130.073 799.282C126.089 813.969 118.076 824 108.841 824C99.6062 824 91.5938 813.969 87.6095 799.282C83.6251 813.969 75.6127 824 66.3777 824C57.1427 824 49.1303 813.969 45.1459 799.282C41.1616 813.969 33.1492 824 23.9142 824C10.7067 824 0 803.483 0 778.174C0 760.477 5.23476 745.123 12.8989 737.488C5.23476 729.853 0 714.499 0 696.802C0 679.105 5.23475 663.751 12.8989 656.116C5.23475 648.481 0 633.127 0 615.43C0 597.733 5.23475 582.379 12.8989 574.744C5.23475 567.109 0 551.755 0 534.058C0 516.361 5.23476 501.007 12.8989 493.372C5.23476 485.737 0 470.383 0 452.686C0 434.989 5.23475 419.635 12.8989 412C5.23475 404.365 0 389.011 0 371.314C0 353.617 5.23474 338.263 12.8989 330.628C5.23474 322.993 0 307.639 0 289.942C0 272.245 5.23475 256.891 12.8989 249.256C5.23475 241.621 0 226.267 0 208.57C0 190.873 5.23475 175.519 12.8989 167.884C5.23475 160.249 0 144.895 0 127.198C0 109.501 5.23475 94.1474 12.8989 86.5122Z" fill="white"/>
</svg>
