<svg width="800" height="800" viewBox="0 0 800 800" fill="none" xmlns="http://www.w3.org/2000/svg">
<path d="M23.9979 83.9925C9.73906 76.5797 0 61.6729 0 44.4915C0 19.9195 19.9195 0 44.4915 0C61.6729 0 76.5797 9.73907 83.9925 23.9979C91.4052 9.73907 106.312 0 123.493 0C140.675 0 155.582 9.73906 162.994 23.9979C170.407 9.73906 185.314 0 202.495 0C219.677 0 234.583 9.73907 241.996 23.9979C249.409 9.73907 264.316 0 281.497 0C298.679 0 313.585 9.73906 320.998 23.9979C328.411 9.73906 343.318 0 360.499 0C377.68 0 392.587 9.73908 400 23.9979C407.413 9.73908 422.32 0 439.501 0C456.682 0 471.589 9.73906 479.002 23.9979C486.415 9.73906 501.321 0 518.503 0C535.684 0 550.591 9.73906 558.004 23.9979C565.416 9.73906 580.323 0 597.505 0C614.686 0 629.593 9.73908 637.006 23.9979C644.418 9.73908 659.325 0 676.507 0C693.688 0 708.595 9.73906 716.007 23.9979C723.42 9.73906 738.327 0 755.508 0C780.08 0 800 19.9195 800 44.4915C800 61.6729 790.261 76.5797 776.002 83.9925C790.261 91.4052 800 106.312 800 123.493C800 140.675 790.261 155.582 776.002 162.994C790.261 170.407 800 185.314 800 202.495C800 219.677 790.261 234.583 776.002 241.996C790.261 249.409 800 264.316 800 281.497C800 298.679 790.261 313.585 776.002 320.998C790.261 328.411 800 343.318 800 360.499C800 377.68 790.261 392.587 776.002 400C790.261 407.413 800 422.32 800 439.501C800 456.682 790.261 471.589 776.002 479.002C790.261 486.415 800 501.321 800 518.503C800 535.684 790.261 550.591 776.002 558.004C790.261 565.417 800 580.323 800 597.505C800 614.686 790.261 629.593 776.002 637.006C790.261 644.418 800 659.325 800 676.507C800 693.688 790.261 708.595 776.002 716.007C790.261 723.42 800 738.327 800 755.508C800 780.08 780.08 800 755.508 800C738.327 800 723.42 790.261 716.007 776.002C708.595 790.261 693.688 800 676.507 800C659.325 800 644.418 790.261 637.006 776.002C629.593 790.261 614.686 800 597.505 800C580.323 800 565.416 790.261 558.004 776.002C550.591 790.261 535.684 800 518.503 800C501.321 800 486.415 790.261 479.002 776.002C471.589 790.261 456.682 800 439.501 800C422.32 800 407.413 790.261 400 776.002C392.587 790.261 377.68 800 360.499 800C343.318 800 328.411 790.261 320.998 776.002C313.585 790.261 298.679 800 281.497 800C264.316 800 249.409 790.261 241.996 776.002C234.583 790.261 219.677 800 202.495 800C185.314 800 170.407 790.261 162.994 776.002C155.582 790.261 140.675 800 123.493 800C106.312 800 91.4052 790.261 83.9925 776.002C76.5797 790.261 61.6729 800 44.4915 800C19.9195 800 0 780.08 0 755.508C0 738.327 9.73909 723.42 23.9979 716.007C9.73908 708.595 0 693.688 0 676.507C0 659.325 9.73907 644.418 23.9979 637.006C9.73906 629.593 0 614.686 0 597.505C0 580.323 9.73907 565.417 23.9979 558.004C9.73906 550.591 0 535.684 0 518.503C0 501.321 9.73909 486.415 23.9979 479.002C9.73908 471.589 0 456.682 0 439.501C0 422.319 9.73907 407.413 23.9979 400C9.73906 392.587 0 377.68 0 360.499C0 343.318 9.73906 328.411 23.9979 320.998C9.73906 313.585 0 298.679 0 281.497C0 264.316 9.73907 249.409 23.9979 241.996C9.73907 234.583 0 219.677 0 202.495C0 185.314 9.73907 170.407 23.9979 162.994C9.73906 155.582 0 140.675 0 123.493C0 106.312 9.73907 91.4052 23.9979 83.9925Z" fill="white"/>
</svg>
