<svg width="1920" height="992" viewBox="0 0 1920 992" fill="none" xmlns="http://www.w3.org/2000/svg">
<path d="M0 0H1920L1920 953H1863.52H1859.39H1746.43H1742.3H1629.34H1625.2H1512.25H1508.11H1395.16H1391.02H1278.06H1273.93H1160.97H1156.84H1043.88H1039.75H926.79H922.656H809.698H805.564H692.607H688.473H575.515H571.381H458.424H454.29H341.332H337.198H224.241H220.107H107.149H103.015C103.015 953 40.2299 953 0 953C0 580.83 0 0 0 0Z" fill="#297D7F"/>
<path d="M1859.39 953H1746.43C1745.79 954.41 1745.1 955.794 1744.36 957.15C1755.62 977.906 1777.62 992 1802.91 992C1828.2 992 1850.19 977.906 1861.45 957.15C1860.72 955.794 1860.03 954.41 1859.39 953Z" fill="#297D7F"/>
<path d="M1629.34 953C1628.7 954.41 1628.01 955.794 1627.27 957.15C1638.53 977.906 1660.53 992 1685.82 992C1711.11 992 1733.1 977.906 1744.36 957.15C1743.63 955.794 1742.94 954.41 1742.3 953H1629.34Z" fill="#297D7F"/>
<path d="M1395.16 953C1394.51 954.41 1393.82 955.794 1393.09 957.15C1404.35 977.906 1426.35 992 1451.63 992C1476.92 992 1498.92 977.906 1510.18 957.15C1509.44 955.794 1508.75 954.41 1508.11 953H1395.16Z" fill="#297D7F"/>
<path d="M1627.27 957.15C1626.54 955.794 1625.85 954.41 1625.2 953H1512.25C1511.61 954.41 1510.92 955.794 1510.18 957.15C1521.44 977.906 1543.44 992 1568.73 992C1594.01 992 1616.01 977.906 1627.27 957.15Z" fill="#297D7F"/>
<path d="M1278.06 953C1277.42 954.41 1276.73 955.794 1276 957.15C1287.26 977.906 1309.25 992 1334.54 992C1359.83 992 1381.83 977.906 1393.09 957.15C1392.35 955.794 1391.66 954.41 1391.02 953H1278.06Z" fill="#297D7F"/>
<path d="M1160.97 953C1160.33 954.41 1159.64 955.794 1158.91 957.15C1170.17 977.906 1192.16 992 1217.45 992C1242.74 992 1264.73 977.906 1276 957.15C1275.26 955.794 1274.57 954.41 1273.93 953H1160.97Z" fill="#297D7F"/>
<path d="M1043.88 953C1043.24 954.41 1042.55 955.794 1041.81 957.15C1053.08 977.906 1075.07 992 1100.36 992C1125.65 992 1147.64 977.906 1158.91 957.15C1158.17 955.794 1157.48 954.41 1156.84 953H1043.88Z" fill="#297D7F"/>
<path d="M809.698 953C809.056 954.41 808.367 955.794 807.631 957.15C818.893 977.906 840.888 992 866.177 992C891.466 992 913.461 977.906 924.723 957.15C923.987 955.794 923.297 954.41 922.656 953H809.698Z" fill="#297D7F"/>
<path d="M692.607 953C691.965 954.41 691.275 955.794 690.54 957.15C701.802 977.906 723.796 992 749.085 992C774.374 992 796.369 977.906 807.631 957.15C806.896 955.794 806.206 954.41 805.564 953H692.607Z" fill="#297D7F"/>
<path d="M575.515 953C574.873 954.41 574.184 955.794 573.448 957.15C584.71 977.906 606.705 992 631.994 992C657.283 992 679.278 977.906 690.54 957.15C689.804 955.794 689.114 954.41 688.473 953H575.515Z" fill="#297D7F"/>
<path d="M458.424 953C457.782 954.41 457.092 955.794 456.357 957.15C467.618 977.906 489.613 992 514.902 992C540.191 992 562.186 977.906 573.448 957.15C572.713 955.794 572.023 954.41 571.381 953H458.424Z" fill="#297D7F"/>
<path d="M341.332 953C340.69 954.41 340.001 955.794 339.265 957.15C350.527 977.906 372.522 992 397.811 992C423.1 992 445.095 977.906 456.357 957.15C455.621 955.794 454.931 954.41 454.29 953H341.332Z" fill="#297D7F"/>
<path d="M224.241 953C223.599 954.41 222.909 955.794 222.174 957.15C233.436 977.906 255.43 992 280.719 992C306.008 992 328.003 977.906 339.265 957.15C338.53 955.794 337.84 954.41 337.198 953H224.241Z" fill="#297D7F"/>
<path d="M107.149 953C106.507 954.41 105.818 955.794 105.082 957.15C116.344 977.906 138.339 992 163.628 992C188.917 992 210.912 977.906 222.174 957.15C221.438 955.794 220.748 954.41 220.107 953H107.149Z" fill="#297D7F"/>
<path d="M456.357 957.15C457.092 955.794 457.782 954.41 458.424 953H454.29C454.931 954.41 455.621 955.794 456.357 957.15Z" fill="#297D7F"/>
<path d="M339.265 957.15C340.001 955.794 340.69 954.41 341.332 953H337.198C337.84 954.41 338.53 955.794 339.265 957.15Z" fill="#297D7F"/>
<path d="M222.174 957.15C222.909 955.794 223.599 954.41 224.241 953H220.107C220.748 954.41 221.438 955.794 222.174 957.15Z" fill="#297D7F"/>
<path d="M105.082 957.15C105.818 955.794 106.507 954.41 107.149 953H103.015C103.657 954.41 104.347 955.794 105.082 957.15Z" fill="#297D7F"/>
<path d="M573.448 957.15C574.184 955.794 574.873 954.41 575.515 953H571.381C572.023 954.41 572.713 955.794 573.448 957.15Z" fill="#297D7F"/>
<path d="M690.54 957.15C691.275 955.794 691.965 954.41 692.607 953H688.473C689.114 954.41 689.804 955.794 690.54 957.15Z" fill="#297D7F"/>
<path d="M807.631 957.15C808.367 955.794 809.056 954.41 809.698 953H805.564C806.206 954.41 806.896 955.794 807.631 957.15Z" fill="#297D7F"/>
<path d="M983.268 992C1008.56 992 1030.55 977.906 1041.81 957.15C1041.08 955.794 1040.39 954.41 1039.75 953H926.79C926.148 954.41 925.458 955.794 924.723 957.15C935.985 977.906 957.979 992 983.268 992Z" fill="#297D7F"/>
<path d="M924.723 957.15C925.458 955.794 926.148 954.41 926.79 953H922.656C923.297 954.41 923.987 955.794 924.723 957.15Z" fill="#297D7F"/>
<path d="M1041.81 957.15C1042.55 955.794 1043.24 954.41 1043.88 953H1039.75C1040.39 954.41 1041.08 955.794 1041.81 957.15Z" fill="#297D7F"/>
<path d="M1158.91 957.15C1159.64 955.794 1160.33 954.41 1160.97 953H1156.84C1157.48 954.41 1158.17 955.794 1158.91 957.15Z" fill="#297D7F"/>
<path d="M1276 957.15C1276.73 955.794 1277.42 954.41 1278.06 953H1273.93C1274.57 954.41 1275.26 955.794 1276 957.15Z" fill="#297D7F"/>
<path d="M1393.09 957.15C1393.82 955.794 1394.51 954.41 1395.16 953H1391.02C1391.66 954.41 1392.35 955.794 1393.09 957.15Z" fill="#297D7F"/>
<path d="M1508.11 953C1508.75 954.41 1509.44 955.794 1510.18 957.15C1510.92 955.794 1511.61 954.41 1512.25 953H1508.11Z" fill="#297D7F"/>
<path d="M1627.27 957.15C1628.01 955.794 1628.7 954.41 1629.34 953H1625.2C1625.85 954.41 1626.54 955.794 1627.27 957.15Z" fill="#297D7F"/>
<path d="M1744.36 957.15C1745.1 955.794 1745.79 954.41 1746.43 953H1742.3C1742.94 954.41 1743.63 955.794 1744.36 957.15Z" fill="#297D7F"/>
<path d="M1859.39 953C1860.03 954.41 1860.72 955.794 1861.45 957.15C1862.19 955.794 1862.88 954.41 1863.52 953H1859.39Z" fill="#297D7F"/>
<path d="M1861.45 957.15C1872.72 977.906 1894.71 992 1920 992L1920 953H1863.52C1862.88 954.41 1862.19 955.794 1861.45 957.15Z" fill="#297D7F"/>
<path d="M46.5364 992C71.8255 992 93.8201 977.906 105.082 957.15C104.347 955.794 103.657 954.41 103.015 953H0C9.50743 992 46.5364 992 46.5364 992Z" fill="#297D7F"/>
</svg>
