<svg width="1464" height="661" viewBox="0 0 1464 661" fill="none" xmlns="http://www.w3.org/2000/svg">
<path d="M1406.92 3V3.08105C1437.3 4.65626 1461.5 29.526 1461.5 60.042C1461.5 85.0991 1445.18 106.347 1422.53 114.021C1445.18 121.694 1461.5 142.943 1461.5 168C1461.5 193.057 1445.18 214.306 1422.53 221.979C1445.18 229.653 1461.5 250.902 1461.5 275.959C1461.5 301.032 1445.16 322.291 1422.48 329.952C1445.18 337.692 1461.5 359.178 1461.5 384.479C1461.5 409.781 1445.18 431.265 1422.48 439.005C1445.16 446.666 1461.5 467.927 1461.5 493C1461.5 518.057 1445.18 539.306 1422.53 546.979C1445.18 554.653 1461.5 575.902 1461.5 600.959C1461.5 631.475 1437.3 656.344 1406.92 657.919V658H60.1436C28.3398 658 2.50027 632.493 2.5 600.959C2.5 575.902 18.8159 554.653 41.4727 546.979C18.8158 539.306 2.5 518.057 2.5 493C2.5 467.927 18.8363 446.666 41.5156 439.005C18.8221 431.264 2.5001 409.781 2.5 384.479C2.5 359.178 18.8218 337.693 41.5156 329.952C18.8367 322.291 2.50021 301.032 2.5 275.959C2.5 250.902 18.8159 229.653 41.4727 221.979C18.8158 214.306 2.5 193.057 2.5 168C2.5 142.943 18.8158 121.694 41.4727 114.021C18.8161 106.347 2.5002 85.0988 2.5 60.042C2.5 28.6452 25.954 3 57.8936 3H1406.92Z" fill="white" stroke="black" stroke-width="5"/>
</svg>
