<svg width="416" height="290" viewBox="0 0 416 290" fill="none" xmlns="http://www.w3.org/2000/svg">
<g filter="url(#filter0_d_1_840)">
<path d="M24.0944 277C15.7595 277 8.99995 266.784 8.99995 254.176C8.99995 242.686 14.6144 233.183 21.919 231.588C14.6144 229.994 8.99995 220.49 8.99995 209C8.99995 197.507 14.6172 188.001 21.9245 186.411C14.6161 184.803 8.99995 175.198 8.99995 163.588C8.99995 151.979 14.6161 142.373 21.9245 140.766C14.6172 139.175 8.99995 129.669 8.99995 118.176C8.99995 106.686 14.6144 97.1826 21.919 95.5882C14.6144 93.9939 8.99995 84.49 8.99995 73C8.99995 61.51 14.6144 52.0061 21.919 50.4118C14.6144 48.8174 8.99995 39.3135 8.99995 27.8235C8.99995 15.2161 15.1434 5 23.4783 5H24.2484H392.06C400.324 5.12493 407 15.2939 407 27.8235C407 39.3135 401.385 48.8174 394.081 50.4118C401.385 52.0061 407 61.51 407 73C407 84.49 401.385 93.9939 394.081 95.5882C401.385 97.1826 407 106.686 407 118.176C407 129.669 401.383 139.175 394.075 140.766C401.384 142.373 407 151.979 407 163.588C407 175.198 401.384 184.803 394.075 186.411C401.383 188.001 407 197.507 407 209C407 220.49 401.385 229.994 394.081 231.588C401.385 233.183 407 242.686 407 254.176C407 266.706 400.324 276.874 392.06 276.999L24.2484 277H24.0944Z" fill="white"/>
<path d="M392.098 2.5C397.322 2.57909 401.729 5.8258 404.72 10.3896C407.724 14.9743 409.5 21.1399 409.5 27.8232C409.5 33.9574 408.004 39.6465 405.444 44.0791C403.978 46.6187 402.113 48.8147 399.927 50.4111C402.114 52.0076 403.977 54.2052 405.444 56.7451C408.004 61.1777 409.5 66.8659 409.5 73C409.5 79.1341 408.004 84.8223 405.444 89.2549C403.978 91.7947 402.114 93.9914 399.927 95.5879C402.114 97.1843 403.977 99.3811 405.444 101.921C408.004 106.353 409.5 112.043 409.5 118.177C409.5 124.312 408.003 130.002 405.442 134.435C403.972 136.979 402.104 139.179 399.911 140.775C402.109 142.39 403.979 144.615 405.448 147.186C408.006 151.658 409.5 157.399 409.5 163.588C409.5 169.777 408.006 175.518 405.448 179.991C403.979 182.561 402.108 184.785 399.911 186.399C402.104 187.996 403.972 190.197 405.442 192.741C408.003 197.174 409.5 202.864 409.5 209C409.5 215.134 408.004 220.822 405.444 225.255C403.978 227.795 402.114 229.991 399.927 231.588C402.114 233.184 403.977 235.381 405.444 237.921C408.004 242.353 409.5 248.043 409.5 254.177C409.5 260.86 407.724 267.025 404.72 271.609C401.729 276.173 397.322 279.42 392.098 279.499H392.06L24.248 279.5H24.0947C18.8221 279.5 14.3624 276.269 11.3369 271.695C8.29853 267.102 6.50001 260.901 6.49995 254.177C6.49995 248.043 7.99577 242.353 10.5556 237.921C12.0223 235.381 13.8856 233.184 16.0722 231.588C13.8856 229.991 12.0222 227.794 10.5556 225.255C7.99583 220.822 6.49995 215.134 6.49995 209C6.49995 202.864 7.99654 197.174 10.5576 192.741C12.0275 190.197 13.8953 187.996 16.0878 186.399C13.8908 184.785 12.021 182.561 10.5517 179.991C7.99427 175.518 6.49995 169.777 6.49995 163.588C6.50001 157.399 7.99432 151.658 10.5517 147.186C12.0212 144.615 13.8904 142.39 16.0878 140.775C13.8955 139.179 12.0273 136.979 10.5576 134.435C7.99666 130.002 6.5 124.312 6.49995 118.177C6.49995 112.043 7.99577 106.353 10.5556 101.921C12.0223 99.3814 13.8856 97.1843 16.0722 95.5879C13.8856 93.9915 12.0222 91.7944 10.5556 89.2549C7.99583 84.8223 6.49995 79.1341 6.49995 73C6.49995 66.8659 7.99583 61.1777 10.5556 56.7451C12.0223 54.2054 13.8854 52.0076 16.0722 50.4111C13.8858 48.8148 12.0222 46.6184 10.5556 44.0791C7.99577 39.6465 6.49995 33.9574 6.49995 27.8232C6.5 21.1456 8.12218 14.9601 10.9931 10.3604C13.8606 5.7662 18.1744 2.5 23.4785 2.5H392.098Z" stroke="black" stroke-width="5"/>
</g>
<defs>
<filter id="filter0_d_1_840" x="-4.57764e-05" y="0" width="416" height="290" filterUnits="userSpaceOnUse" color-interpolation-filters="sRGB">
<feFlood flood-opacity="0" result="BackgroundImageFix"/>
<feColorMatrix in="SourceAlpha" type="matrix" values="0 0 0 0 0 0 0 0 0 0 0 0 0 0 0 0 0 0 127 0" result="hardAlpha"/>
<feOffset dy="4"/>
<feGaussianBlur stdDeviation="2"/>
<feComposite in2="hardAlpha" operator="out"/>
<feColorMatrix type="matrix" values="0 0 0 0 0 0 0 0 0 0 0 0 0 0 0 0 0 0 0.25 0"/>
<feBlend mode="normal" in2="BackgroundImageFix" result="effect1_dropShadow_1_840"/>
<feBlend mode="normal" in="SourceGraphic" in2="effect1_dropShadow_1_840" result="shape"/>
</filter>
</defs>
</svg>
