<svg width="319" height="341" viewBox="0 0 319 341" fill="none" xmlns="http://www.w3.org/2000/svg">
<path d="M41.031 205.707C40.8959 205.697 40.7945 205.315 40.7818 204.4C39.6764 209.899 40.4069 207.493 40.833 206.842C40.3654 209.602 39.9074 212.368 39.5074 215.132C39.2937 215.337 39.1252 215.233 39.3926 212.801C38.4208 217.318 38.6683 218.099 39.0163 218.696C38.3166 223.897 37.7519 229.109 37.4574 234.338C37.2344 235.287 37.0368 236.097 36.8599 236.696C36.714 240.84 36.8612 243.307 37.2001 244.789C37.2203 244.902 37.2442 244.989 37.271 245.093C37.4395 247.773 37.8667 250.406 38.7207 252.955C38.6311 252.78 38.5414 252.604 38.4385 252.447C38.1283 251.735 37.8396 251.378 37.5899 251.614C38.0016 252.85 38.6673 254.107 39.3033 255.245C39.9861 256.457 40.7541 258.055 41.8263 258.973C42.5558 259.652 43.2444 259.679 44.1198 259.399L44.1293 259.405C46.672 258.561 48.6055 256.074 50.283 254.117C52.4855 251.549 54.9386 249.312 57.3963 247.007C63.1959 241.557 69.0261 236.185 75.3126 231.315C78.4463 228.873 81.6905 226.537 84.99 224.325C86.8588 223.067 89.1324 222.304 89.3142 219.812C89.5769 216.23 87.8405 211.862 85.7041 209.041C84.7579 207.8 84.2134 207.505 82.8976 208.356C79.8022 210.357 76.7725 212.447 73.802 214.634C67.7042 219.112 62.0093 224.027 56.4993 229.184C61.1298 217.822 67.1419 206.915 73.7692 196.607C73.7559 196.626 73.736 196.655 73.7227 196.674C76.6189 193.132 77.0538 192.063 77.4318 191.095C78.4918 189.556 79.5546 188.033 80.6527 186.52C79.8515 188.155 79.5218 189.581 78.7443 191.162C81.18 186.86 81.9054 185.455 82.8374 183.572C83.8017 182.292 84.7851 181.025 85.7713 179.774C86.2006 179.422 86.1043 179.865 86.3704 179.767C87.137 178.547 87.9322 177.347 88.6731 176.123C91.6585 172.474 94.7297 168.885 97.9265 165.44C97.9371 165.546 98.447 165.039 100.94 162.277C106.524 156.549 112.51 151.115 118.791 146.03C118.894 146.653 119.022 147.281 119.144 147.918C119.228 148.812 119.28 149.528 119.315 150.005C119.322 150.279 119.312 150.456 119.287 150.594C119.581 150.7 119.756 151.077 119.909 151.325C121.157 156.23 123.015 160.81 125.34 165.066C125.522 165.433 125.707 165.817 125.892 166.201C127.31 168.875 129.032 171.379 130.75 173.866C131.052 174.813 130.451 174.294 130.077 173.878C129.202 172.899 128.417 171.813 127.674 170.728C126.199 168.581 124.898 166.328 123.518 164.106C124.869 166.775 126.319 169.444 128.192 171.812C129.894 173.977 131.932 175.824 133.891 177.743C134.277 178.083 134.71 178.456 135.182 178.856C136.738 180.621 139.232 182.545 141.8 184.281C145.136 186.906 148.712 189.246 152.508 191.272C152.275 191.181 152.051 191.095 151.827 191.01C153.688 191.955 155.522 192.937 157.269 194.086C159.356 195.457 161.545 196.235 163.94 196.901C162.792 196.355 161.401 195.568 159.841 194.72C164.448 196.619 169.213 198.047 174.083 199.082C175.572 199.484 176.213 199.762 175.041 199.92C177.958 200.385 181.177 201.088 184.139 200.636C186.72 200.894 189.309 201.017 191.911 201.063C190.977 201.204 190.038 201.271 189.103 201.354C188.861 201.355 185.883 201.16 185.697 201.568C185.65 201.677 188.995 202.199 189.165 202.219C191.588 202.013 193.994 201.81 196.407 201.497C196.714 201.584 197.666 201.64 198.912 201.66C200.974 201.627 203.026 201.587 205.089 201.512C205.321 201.504 208.821 201.499 208.67 201.775C212.698 201.076 213.287 200.638 216.49 199.801C219.661 199.679 222.717 199.094 225.619 197.835C224.571 198.08 223.6 198.295 222.71 198.495C216.363 199.699 210.046 200.372 203.617 200.882C202.312 200.947 200.764 201.014 198.914 201.11C199.018 201.041 199.309 200.989 199.693 200.946C212.067 200.296 224.449 197.585 235.992 193.439C237.234 193.343 233.545 195.058 233.052 195.563C237.381 194.309 239.495 193.166 241.477 192.172C243.426 191.083 245.297 190.167 248.921 188.605C247.996 189.12 247.054 189.637 246.119 190.146C245.907 190.267 245.193 190.519 245.081 190.78C245.153 190.618 247.207 190.027 247.463 189.923C248.542 189.473 249.596 188.977 250.647 188.465C252.697 187.475 254.713 186.391 256.776 185.424C254.682 185.888 252.66 186.798 250.678 187.609C248.177 188.637 245.682 189.656 243.162 190.63C254.217 185.946 264.641 179.448 273.109 170.863C281.416 162.449 287.869 151.539 287.76 139.403C287.699 131.193 284.34 123.753 278.632 117.916C278.582 117.824 278.574 117.776 278.632 117.774C278.508 117.688 278.375 117.595 278.225 117.504C275.409 114.704 272.14 112.267 268.62 110.15C269.628 110.471 271.037 111.13 272.988 112.533C268.222 108.287 262.273 105.31 256.326 103.1C250.508 100.95 244.065 99.2279 237.833 99.1108C237.22 98.9947 236.608 98.8785 235.988 98.7719C235.927 98.7577 234.499 98.3698 234.589 98.2203C234.74 97.9434 236.101 98.185 236.326 98.1866C237.625 98.2723 238.929 98.4322 240.228 98.5598C242.74 98.9967 245.25 99.5172 247.791 99.8323C240.214 97.6868 232.438 96.2519 224.573 95.6749C216.863 95.1206 209.243 95.5922 201.557 96.3006C196.433 97.0703 191.319 97.8466 186.263 99.0459C181.168 100.261 176.183 101.806 171.193 103.377C169.424 104.025 167.614 104.673 165.776 105.358C165.75 106.004 165.077 106.441 163.938 107.019C162.814 107.636 161.242 108.407 159.413 109.608L156.798 110.231C157.671 110.034 156.369 111.008 157.05 111.087C147.593 115.287 138.467 120.27 129.839 125.756C130.344 121.99 131.134 118.281 132.124 114.612C132.099 116.534 132.112 118.482 131.978 120.399C132.03 119.756 132.099 119.11 132.184 118.461C132.553 116.228 133.042 113.965 133.758 111.803C134.587 108.871 135.666 106.27 136.723 103.639C139.024 98.436 141.649 93.2335 145.784 85.9702C145.471 87.3514 144.58 88.6687 143.97 89.9277C143.06 91.8404 142.112 93.7264 141.256 95.6628C139.863 98.7953 138.504 101.98 137.382 105.231C138.422 102.645 139.88 99.034 141.346 96.122C141.826 95.0696 142.376 94.038 142.98 93.0301C143.244 92.5914 143.922 90.97 144.526 90.8959C144.466 90.4148 144.392 89.9528 144.34 89.4783C149.496 81.0163 144.321 91.0075 146.502 88.552C148.125 85.8205 149.891 83.1887 151.552 80.4838C152.022 79.7082 153.003 78.4249 152.688 77.4554C152.588 77.1731 152.383 76.9594 152.345 76.6494C152.257 75.923 152.766 75.1739 153.12 74.5857C155.185 72.0923 157.342 69.6911 159.603 67.4047C160.204 66.8894 160.887 66.2342 161.609 65.4639C163.374 63.7659 165.19 62.1174 167.056 60.56C166.87 60.8266 166.762 61.0207 166.744 61.1491C166.7 61.5571 167.344 61.3841 167.772 61.258C169.323 59.3397 171.069 57.6284 173.149 56.2914C175.447 54.8238 177.896 53.6879 180.259 52.3505C182.374 51.3491 184.856 50.0239 188.169 48.5425C188.422 48.7476 186.959 49.5664 185.398 50.4444C183.861 51.4098 182.26 52.4866 182.047 52.9329C187.349 49.5554 193.227 47.4011 199.031 45.0681C200.472 44.545 201.502 44.1034 201.874 43.7539C205.699 42.8567 209.569 42.3017 213.448 41.7534L213.713 41.6979C213.817 41.6711 213.973 41.6101 214.113 41.5519C214.376 41.4384 214.676 41.2516 214.855 40.8529C214.956 40.6682 214.954 40.4685 214.97 40.2821C214.958 40.1176 214.922 39.9655 214.887 39.8134C214.472 38.7451 213.468 37.9315 212.544 37.3289L212.605 37.3012L212.638 37.2955L212.647 37.3021C212.816 37.2639 212.638 37.2955 212.499 37.3118C212.451 37.2786 212.404 37.2454 212.356 37.2122C212.421 37.2007 212.518 37.1834 212.582 37.1719L212.502 37.1863L212.363 37.2027C210.236 35.8885 207.742 34.8981 205.212 34.8312C202.596 34.7463 199.719 35.3997 197.167 35.9538C198.668 35.6284 200.203 35.3553 201.672 34.894C201.941 34.8128 202.488 34.6989 202.578 34.3659C202.617 34.209 202.572 34.0502 202.97 33.8043C203.667 33.4553 204.386 33.2775 205.154 33.1909C205.36 33.1792 205.567 33.1675 205.766 33.1653C205.193 33.1756 204.625 33.2182 204.057 33.3026C203.805 33.3391 203.604 33.3831 203.439 33.4376L202.879 33.5705C193.414 35.8543 184.127 38.5315 175.548 43.259C170.361 45.6406 165.581 48.7169 161 52.1161C160.85 51.9261 160.948 51.5418 161.328 50.7738C154.446 55.4829 153.835 56.6838 153.19 57.6072C151.888 59.798 149.715 61.5935 147.947 63.3752C148.717 62.6381 149.495 61.9076 150.265 61.1706C150.679 60.7801 151.322 60.3656 151.647 59.8992C151.555 59.9906 151.473 60.0887 151.39 60.1867C145.898 65.3988 140.951 71.1893 136.62 77.3954C136.648 76.8486 136.936 76.0304 135.703 77.9587C134.57 80.9615 132.498 83.6061 130.916 86.3803C130.346 87.2987 129.753 88.2296 129.144 89.1633C127.898 91.394 126.646 93.6343 125.499 95.6643C124.453 97.7511 123.651 99.7112 123.088 101.229L123.827 99.013C123.827 99.013 122.736 101.266 121.718 103.557C120.828 105.908 119.928 108.252 119.928 108.252C119.868 108.338 119.89 108.226 119.85 108.283C119.875 108.47 119.9 108.657 119.949 108.79C118.482 111.419 117.699 114.651 116.964 117.55C116.1 120.938 115.48 124.809 115.541 128.291C115.825 129.791 115.681 131.418 115.726 132.935C115.573 133.196 115.217 133.401 114.928 133.652C111.684 136.172 108.425 138.711 105.303 141.401C102.767 143.594 100.029 145.732 97.8998 148.337C100.453 145.773 103.169 143.464 106.059 141.249L106.112 142.391C103.122 144.89 102.892 144.814 102.739 144.75C102.598 144.708 102.468 144.631 99.8916 147.349C100.938 147.371 102.086 146.091 102.827 145.476C103.961 144.541 105.025 143.543 106.09 142.545C108.127 140.64 110.209 138.752 112.453 137.077C110.586 139.044 108.535 140.826 106.551 142.654C107.909 141.479 109.333 140.392 110.757 139.305C108.995 140.694 107.248 142.122 105.524 143.579C105.868 143.268 106.206 142.966 106.551 142.654C104.633 144.288 102.644 145.859 100.839 147.614C99.559 148.759 98.2693 149.897 97.0176 151.061C97.191 150.63 96.9598 150.596 95.8113 151.451C93.1634 153.765 90.5954 156.105 88.4208 158.877C87.7308 159.825 87.1339 160.64 86.4439 161.588C84.7405 163.4 83.0752 165.238 81.4318 167.106C80.0446 167.978 80.3281 166.761 74.5231 173.679L78.8905 167.583C73.32 172.401 74.7715 173.202 71.2363 177.415C73.2725 175.552 74.967 173.55 76.7413 171.434C77.4799 171.227 74.5431 175.01 73.2279 176.894L74.1506 175.755C74.0965 175.873 74.0558 175.972 74.0084 176.08C70.0502 181.103 66.311 186.278 62.7718 191.593C62.7585 191.612 62.7253 191.66 62.712 191.679C63.0373 191.071 63.3625 190.463 63.7069 189.868C61.1219 194.221 58.3208 198.438 55.7901 202.815L55.7919 202.731C55.7246 202.868 55.6801 202.993 55.6195 203.12C54.2791 205.426 52.9835 207.749 51.7612 210.109C51.8677 209.49 51.5181 209.727 50.3372 212.413C50.2921 211.504 50.9114 210.394 51.2888 209.61C51.8443 208.469 52.4475 207.361 53.0669 206.25C54.4003 203.812 55.7594 201.378 57.268 199.034C56.251 200.673 55.189 202.763 53.7093 204.052C53.2924 204.426 53.5661 203.669 53.6305 203.516C54.1203 202.286 54.7795 201.119 55.4159 199.963C53.7958 201.494 52.0468 206.515 49.8058 209.99C50.3042 209.418 49.9448 210.724 50.2612 210.534C49.8959 210.449 48.74 212.714 47.5258 215.448C49.2144 206.294 51.0351 197.132 53.0699 188.05C54.0798 183.56 55.1924 179.085 56.5162 174.673C57.1985 172.417 57.9417 170.176 58.7391 167.958C59.4978 165.897 60.0534 164.148 59.7429 161.935C60.0092 161.979 60.1562 162.337 60.3723 162.473C60.8168 162.769 60.7432 161.232 60.7392 161.116C60.5144 159.572 60.1142 158.401 59.7799 157.46C59.3637 156.433 58.92 155.487 58.2169 154.628C57.63 153.907 57.3313 153.868 56.482 153.828C56.4725 153.821 56.463 153.814 56.463 153.814C56.0437 153.239 55.5404 152.52 54.8676 152.206C53.9844 151.788 53.7295 153.025 53.5145 153.597C52.6174 155.957 51.8003 158.346 51.0279 160.751C49.4528 165.625 48.1145 170.565 46.9076 175.54C44.5032 185.497 42.6952 195.573 40.9482 205.663C43.9953 188.03 40.8131 205.654 40.9482 205.663L41.031 205.707ZM211.758 37.6438C212.092 37.8345 212.403 38.0376 212.685 38.2625L212.665 38.2911L212.646 38.2778C212.338 38.049 212.021 37.8555 211.68 37.6743C211.693 37.6553 211.725 37.6495 211.742 37.6466C211.719 37.659 212.076 37.8373 211.742 37.6466L211.758 37.6438ZM129.851 138.377C129.922 138.539 130.009 138.699 130.086 138.852C129.89 139.437 129.485 139.225 129.25 138.65C129.241 138.46 129.232 138.27 129.23 138.07C129.975 137.529 130.753 137.024 131.508 136.489C130.911 136.979 130.096 137.599 129.842 138.37C129.873 138.264 129.912 138.532 129.842 138.37L129.851 138.377ZM141.563 175.736C142.482 177.057 143.418 178.333 144.441 179.585C143.509 178.567 142.614 177.517 141.777 176.423C141.736 176.239 141.673 176.025 141.563 175.736ZM129.253 138.666C129.485 139.551 129.432 139.91 129.316 140.239C129.288 139.711 129.27 139.188 129.253 138.666ZM212.655 38.2845C212.655 38.2845 212.678 38.272 212.704 38.2758C212.704 38.2758 212.713 38.2825 212.723 38.2891L212.681 38.2882L212.672 38.2816L212.655 38.2845ZM214.237 39.9541C214.237 39.9541 214.252 39.9931 214.264 40.0159C214.245 40.0026 214.24 39.9703 214.237 39.9541ZM213.112 38.6452C213.112 38.6452 213.096 38.6062 213.077 38.5929C213.305 38.7942 213.526 39.005 213.727 39.2444C213.532 39.0374 213.32 38.8332 213.112 38.6452C213.336 38.8303 213.102 38.6386 213.112 38.6452ZM212.961 38.3135C212.927 38.2194 212.958 38.2973 213.066 38.5283L212.961 38.3135ZM241.156 192.004C237.168 193.538 238.479 192.797 236.559 193.255C238.331 192.623 240.066 191.923 241.794 191.232L241.149 192.013L241.156 192.004ZM256.317 171.699L256.235 171.147C257.317 170.246 257.041 170.803 257.773 170.465C257.297 170.883 256.811 171.294 256.323 171.69L256.317 171.699ZM257.845 170.402C257.286 170.493 257.978 169.278 257.896 168.909C255.636 170.545 256.269 171.524 254.095 172.753C256.649 169.864 252.741 173.252 251.431 173.527C252.466 173.768 253.818 173.353 256.048 171.922C248.212 178.301 239.136 183.234 229.757 186.936C229.702 186.913 229.671 186.877 229.685 186.816C229.639 186.882 229.592 186.949 229.513 187.021C228.338 187.489 227.15 187.934 225.959 188.362C226.191 188.029 226.587 187.725 227.302 187.431C223.839 187.647 218.093 189.653 215.96 191.391C215.872 191.415 215.768 191.442 215.671 191.459C213.239 191.375 217.457 190.016 218.601 189.088C210.233 190.976 201.785 192.512 193.244 193.331C193.189 194.525 192.328 194.136 191.034 195.016L190.18 194.618C190.47 194.75 189.967 195.206 190.225 195.527C185.76 195.738 181.244 195.615 176.805 195.079C177.467 194.72 178.202 194.356 179.166 194.151C177.198 194.476 175.168 194.078 173.251 193.661C171.201 193.15 169.203 192.747 167.138 192.339C167.856 191.877 169.511 192.183 170.312 192.232C171.49 192.29 172.66 192.54 173.835 192.54C172.139 192.191 168.982 191.927 168.996 191.299L168.438 192.057C165.447 191.272 169.035 191.426 168.221 190.603C167.2 190.301 165.737 189.761 164.666 190.16C163.783 190.493 163.928 191.684 162.821 191.789C161.92 191.457 161.02 191.084 160.126 190.701C159.884 190.461 159.5 190.321 159.02 190.198C158.366 189.897 157.703 189.59 157.066 189.244C157.621 189.179 157.578 188.653 157.546 188.334C156.067 188.505 155.4 188.082 154.652 187.348C153.576 186.172 152.455 185.262 151.164 184.333C151.295 184.085 151.796 184.279 152.34 184.474C152.903 184.641 153.511 184.824 153.786 184.634C151.493 183.699 148.496 181.381 147.453 181.658C145.841 180.236 144.735 178.757 143.702 177.54C142.744 176.235 141.941 175.094 141.108 174.116C141.433 174.442 142.166 175.379 142.734 175.053C143.278 174.739 143.712 174.929 144.237 175.252C143.388 174.703 142.56 174.125 141.785 173.471C140.919 172.683 139.901 171.788 138.931 170.785C138.192 169.958 137.375 169.119 136.627 168.244C135.839 166.717 135.115 165.136 134.463 163.535C134.688 163.436 134.952 163.423 135.431 163.488C134.201 158.454 133.913 162.457 132.62 157.676L133.159 159.907C133.116 159.806 133.053 159.734 133.013 159.649C132.268 157.431 131.643 155.182 131.125 152.882C131.438 152.959 131.733 153.207 131.539 152.491C129.809 150.973 130.841 146.229 130.509 144.271L130.709 144.977L131.011 141.847C131.011 141.847 131.053 141.848 131.082 141.826C131.006 141.773 130.933 141.736 130.837 141.711C131.046 141.249 131.182 140.749 131.309 140.243L131.384 140.055C131.431 139.946 131.476 139.822 131.52 139.697C131.641 139.484 131.531 139.195 131.874 139.109C132.004 139.044 132.118 138.982 132.236 138.894L132.406 138.772L132.639 138.581C133.038 137.359 135.194 136.259 136.152 135.555C137.254 134.767 139.277 133.857 139.931 132.615C139.113 133.361 138.346 133.873 137.087 134.438L136.764 133.562C138.84 132.251 137.366 134.18 139.036 132.458C138.016 131.647 136.173 134.267 134.705 135.154C135.059 134.566 135.615 133.85 136.444 133.169C135.958 133.48 135.481 133.799 134.985 134.104C135.632 133.663 136.288 133.23 136.938 132.806C136.768 132.928 136.598 133.05 136.438 133.178C137.113 132.758 137.779 132.331 138.42 131.858C138.884 131.559 139.341 131.269 139.805 130.97C139.799 131.221 139.945 131.337 140.392 131.224C142.843 130.146 143.126 129.396 143.771 128.472C144.456 128.059 145.127 127.664 145.822 127.257C146.476 127.374 146.481 128.057 148.93 126.638L147.194 128.314C149.747 128.185 148.817 126.799 150.422 126.122C149.784 126.144 149.629 125.88 147.945 126.913C147.555 126.64 148.756 125.71 149.358 125.294L148.944 125.501C148.944 125.501 148.978 125.412 148.995 125.367C150.743 124.364 152.489 123.403 154.245 122.449C154.278 122.443 154.31 122.437 154.342 122.432L153.847 122.878C155.161 121.928 156.585 121.166 158.021 120.427L158.009 120.546C158.126 120.458 158.235 120.364 158.333 120.263C159.02 119.907 159.707 119.552 160.397 119.212C160.249 119.547 160.349 119.688 161.249 119.169C161.163 120.327 157.999 121.289 157.171 121.603C157.71 121.399 158.522 121.088 159.12 121.265C159.799 121.469 158.287 122.297 158.18 122.349C159.084 122.655 160.097 121.083 161.388 120.795C161.09 120.715 161.362 120.324 161.179 120.182C161.635 120.968 165.463 118.161 165.27 117.545L163.338 119.056C163.033 118.702 163.894 117.873 164.321 117.322C169.981 114.69 175.778 112.366 181.684 110.415C181.773 110.775 181.403 111.366 182.22 111.412C184.997 110.901 184.352 110.182 184.365 109.555C190.22 107.738 196.186 106.268 202.218 105.212C202.276 105.352 202.192 105.534 201.926 105.773C203.764 105.654 202.809 105.441 202.567 105.158C203.424 105.006 204.271 104.847 205.133 104.727C205.267 104.92 205.533 105.148 204.581 105.417C206.16 105.486 206.254 105.028 206.361 104.55C207.953 104.317 209.561 104.123 211.172 103.945C211.527 104.065 211.845 104.217 212.064 104.369C213.666 104.185 214.425 103.908 214.835 103.585C215.673 103.519 216.508 103.479 217.35 103.429C216.908 103.616 216.632 103.849 216.737 104.247C218.144 103.488 219.542 103.331 221.115 103.268C223.19 103.216 225.258 103.173 227.341 103.211C231.204 103.275 235.069 103.537 238.901 104.032C246.621 105.018 254.425 106.939 261.231 110.84C261.396 110.969 261.555 111.065 261.715 111.12C262.72 111.709 263.676 112.347 264.605 113.024C264.586 113.011 264.544 113.01 264.509 112.999C264.97 113.576 265.305 113.867 265.582 114.017C265.801 114.17 265.974 114.206 266.144 114.226C266.622 114.616 267.097 115.032 267.548 115.46C266.881 115.32 266.255 115.407 265.675 115.243C266.954 115.966 267.62 116.006 268.318 116.182C268.694 116.557 269.053 116.935 269.405 117.323C269.448 117.565 269.213 117.599 269.135 117.771C269.601 118.096 270.003 118.292 270.367 118.46C271.305 119.611 272.142 120.846 272.903 122.17C272.863 122.227 273.002 122.494 273.622 123.492C274.846 125.918 275.754 128.491 276.206 131.17C276.113 131.586 275.985 131.851 275.829 131.954C276.011 131.996 276.195 132.139 276.371 132.333C276.541 133.753 276.588 135.187 276.528 136.632C276.475 136.991 276.403 137.379 276.323 137.777C276.118 138.964 275.765 140.119 275.765 140.119C275.184 140.464 275.19 139.888 275.31 139.066C275.402 138.224 275.578 137.101 275.348 136.375C275.243 137.377 275.06 138.41 275.097 139.412C275.135 140.331 275.368 141.215 275.351 142.152C275.201 142.712 275.134 143.458 275.075 144.252C275.067 144.487 275.052 144.731 275.027 144.969C274.646 146.246 274.178 147.504 273.675 148.753C273.681 148.643 273.702 148.531 273.689 148.408C273.242 149.738 272.803 149.942 272.472 150.192C272.132 150.436 271.862 150.701 271.509 152.039C271.853 151.77 272.314 151.412 272.717 150.957C272.046 152.386 271.32 153.79 270.538 155.155C270.21 155.563 269.934 155.696 269.793 155.187C269.104 156.419 268.776 157.436 268.814 157.929C268.364 158.635 267.902 159.317 267.437 159.983C267.552 158.804 268.672 156.896 266.906 158.594C266.7 159.356 266.494 160.118 266.217 160.859C265.672 160.931 263.451 163.727 262.947 163.05C262.217 164.055 262.316 164.421 261.782 165.308C260.82 165.712 260.147 166.007 259.673 167.276C263.73 163.794 262.899 165.168 265.978 161.669C266.054 161.863 265.665 162.3 265.276 162.736L265.552 162.461C263.256 165.346 260.666 167.983 257.864 170.415C257.305 170.506 260.666 167.983 257.864 170.415L257.845 170.402ZM214.135 39.7555C214.135 39.7555 214.056 39.6443 214.022 39.5921C214.073 39.6414 214.107 39.6937 214.135 39.7555ZM203.223 35.6936C206.108 35.2722 208.829 36.0387 211.369 37.4294C211.337 37.4351 211.305 37.4409 211.272 37.4466C209.202 36.3558 206.628 35.5216 204.343 35.7529C203.838 35.726 203.213 35.7288 202.426 35.8021C202.426 35.8021 202.71 35.7599 203.223 35.6936C203.718 35.614 202.716 35.7504 203.223 35.6936ZM119.841 115.071C119.571 116.269 119.336 117.478 119.117 118.684C119.121 118.659 119.115 118.626 119.122 118.617C119.318 117.423 119.507 116.239 119.841 115.071C119.571 116.269 119.792 115.263 119.841 115.071ZM118.07 125.399C118.226 123.186 118.289 121.108 118.237 119.174C118.598 117.643 118.953 117.296 119.047 117.588C119.114 117.776 119.111 118.227 119.089 118.806C118.544 121.838 118.187 124.886 117.99 127.947C117.992 127.071 117.956 126.211 118.06 125.392C118.216 123.18 117.956 126.211 118.06 125.392L118.07 125.399ZM46.9781 219.255C47.0591 218.774 47.1431 218.309 47.2241 217.828C47.254 218.089 47.153 218.599 46.9781 219.255Z" fill="#FFCC3F"/>
<path d="M153.787 122.88C153.195 123.302 152.651 123.758 152.202 124.279L153.787 122.88Z" fill="#FFCC3F"/>
<path d="M161.326 120.806C161.431 120.838 161.58 120.828 161.852 120.763C161.675 120.753 161.494 120.768 161.326 120.806Z" fill="#FFCC3F"/>
<path d="M168.968 191.28L169.214 190.927C169.037 191.059 168.967 191.18 168.968 191.28Z" fill="#FFCC3F"/>
<path d="M149.298 125.296L149.39 125.247C149.769 124.988 149.609 125.074 149.298 125.296Z" fill="#FFCC3F"/>
<path d="M151.596 125.864C151.07 125.907 150.669 125.995 150.363 126.108C150.631 126.11 150.983 126.073 151.596 125.864Z" fill="#FFCC3F"/>
<path d="M229.655 186.796C229.708 186.72 229.768 186.634 229.796 186.554C229.716 186.668 229.669 186.735 229.655 186.796Z" fill="#FFCC3F"/>
<path d="M131.043 141.825C131.17 141.886 131.287 141.982 131.379 142.074C131.284 141.824 131.167 141.728 131.043 141.825Z" fill="#FFCC3F"/>
<path d="M132.379 143.155C132.023 143.543 131.92 142.636 131.378 142.074C131.751 143 132.007 145.372 132.379 143.155Z" fill="#FFCC3F"/>
<path d="M235.143 182.585L237.562 181.046L236.53 181.104C236.238 181.523 234.624 182.619 235.137 182.595L235.143 182.585Z" fill="#FFCC3F"/>
<path d="M242.019 179.286C242.889 178.931 243.766 178.609 244.611 178.208L245.587 176.242C243.071 177.799 244.629 177.838 242.019 179.286Z" fill="#FFCC3F"/>
<path d="M249.057 175.791L248.696 176.389C249.111 175.957 249.169 175.813 249.057 175.791Z" fill="#FFCC3F"/>
<path d="M248.879 175.314L249.303 173.997C249.303 173.997 248.651 174.646 247.997 175.279C247.305 175.886 246.629 176.49 246.629 176.49L247.9 175.905C248.088 176.164 248.889 175.746 249.072 175.789L249.852 174.508C249.622 174.757 249.144 175.259 248.879 175.314Z" fill="#FFCC3F"/>
<path d="M251.414 173.513C251.301 173.492 251.16 173.492 251.061 173.451C251.094 173.545 251.223 173.564 251.414 173.513Z" fill="#FFCC3F"/>
<path d="M274.686 142.962L274.127 144.595L274.377 145.251C274.493 144.497 274.589 143.729 274.689 142.978L274.686 142.962Z" fill="#FFCC3F"/>
<path d="M275.769 131.939C275.673 131.915 275.586 131.897 275.489 131.914C275.581 132.006 275.681 132.005 275.769 131.939Z" fill="#FFCC3F"/>
<path d="M265.616 115.245C265.355 115.091 265.126 114.974 264.801 114.79C265.076 115.024 265.334 115.162 265.616 115.245Z" fill="#FFCC3F"/>
<path d="M275.285 132.651L274.925 131.706L274.726 132.417L275.285 132.651Z" fill="#FFCC3F"/>
<path d="M263.848 114.392L262.864 114.301L263.477 114.558C263.905 114.899 264.285 114.74 263.848 114.392Z" fill="#FFCC3F"/>
<path d="M259.88 111.313L261.796 112.565L260.891 111.325L259.88 111.313Z" fill="#FFCC3F"/>
<path d="M169.238 116.748C171.374 116.384 172.839 114.915 174.802 114.19C172.908 114.511 170.673 115.767 169.238 116.748Z" fill="#FFCC3F"/>
<path d="M156.269 125.799C156.604 125.339 157.174 124.888 156.146 125.346L157.309 123.213C154.436 124.308 155.921 125.344 156.276 125.79C155.921 125.344 156.611 125.33 156.276 125.79L156.269 125.799Z" fill="#FFCC3F"/>
<path d="M141.097 135.001L143.255 133.024L141.992 133.799C142.335 132.963 142.639 132.467 143.329 131.519C141.676 132.913 140.23 134.438 141.097 135.001Z" fill="#FFCC3F"/>
<path d="M145.421 129.963C145.153 130.144 144.858 130.363 144.545 130.569C144.896 130.531 145.169 130.608 145.421 129.963Z" fill="#FFCC3F"/>
<path d="M143.572 131.192C143.479 131.325 143.412 131.421 143.323 131.528C143.72 131.182 144.139 130.866 144.538 130.578C144.277 130.608 143.953 130.666 143.565 131.202C143.472 131.335 143.953 130.666 143.565 131.202L143.572 131.192Z" fill="#FFCC3F"/>
<path d="M138.935 135.627C137.556 136.548 136.227 137.559 134.902 138.545L136.598 137.677C136.489 136.779 138.76 136.751 138.944 135.634L138.935 135.627Z" fill="#FFCC3F"/>
<path d="M137.38 161.79C136.121 160.713 134.589 156.417 134.291 154.227L133.661 154.906C133.929 156.409 134.712 157.763 135.424 159.095C136.019 160.231 136.933 161.619 136.798 162.969C137.032 162.411 138.405 164.926 137.38 161.79C138.412 164.916 136.121 160.713 137.38 161.79Z" fill="#FFCC3F"/>
<path d="M136.8 162.969C136.776 163.024 136.758 163.11 136.765 163.242C136.783 163.156 136.791 163.063 136.8 162.969Z" fill="#FFCC3F"/>
<path d="M137.051 165.425C136.621 165.068 136.805 165.819 136.779 166.283C137.162 167.357 138.05 168.274 138.062 167.588C136.73 167.225 138.123 166.202 137.051 165.425C138.13 166.192 136.621 165.068 137.051 165.425Z" fill="#FFCC3F"/>
<path d="M144.857 177.484C144.217 176.839 143.397 175.885 144.052 177.036C145.909 179.04 146.101 177.913 147.379 178.536C146.274 176.59 144.033 175.947 144.847 177.478C144.033 175.947 144.207 176.833 144.847 177.478L144.857 177.484Z" fill="#FFCC3F"/>
<path d="M160.601 190.183L162.491 190.03L161.847 189.595L160.601 190.183Z" fill="#FFCC3F"/>
<path d="M178.048 192.874C178.286 193.04 178.514 193.2 178.514 193.2L180.641 192.688C180.641 192.688 177.557 192.603 177.562 192.535C177.562 192.535 177.8 192.702 178.038 192.868C177.791 192.695 178.276 193.034 178.038 192.868L178.048 192.874Z" fill="#FFCC3F"/>
<path d="M181.653 193.592C181.653 193.592 182.345 193.636 183.024 193.657C183.707 193.652 184.406 193.644 184.406 193.644L183.448 193.373C182.143 193.113 182.567 193.621 181.66 193.582L181.653 193.592Z" fill="#FFCC3F"/>
<path d="M187.894 193.632C187.28 193.741 186.65 193.853 186.65 193.853C186.65 193.853 187.463 193.784 188.285 193.721C189.09 193.603 189.904 193.491 189.904 193.491C189.561 193.578 189.334 193.476 189.133 193.378C189.133 193.378 188.521 193.546 187.888 193.642C187.274 193.751 188.512 193.539 187.888 193.642L187.894 193.632Z" fill="#FFCC3F"/>
<path d="M63.8175 189.89C65.0491 188.003 66.2198 186.103 67.2175 184.308L63.8175 189.89Z" fill="#FFCC3F"/>
<path d="M49.0307 211.361C49.3325 210.949 49.6161 210.482 49.8903 210.008C49.7184 210.214 49.4556 210.61 49.0307 211.361Z" fill="#FFCC3F"/>
<path d="M144.568 90.8967L144.657 91.5394C144.745 91.0486 144.697 90.8737 144.568 90.8967Z" fill="#FFCC3F"/>
<path d="M73.3409 176.916L73.1358 177.169C72.274 178.323 72.6215 177.886 73.3409 176.916Z" fill="#FFCC3F"/>
<path d="M71.349 177.437C70.7935 177.969 70.0119 178.684 68.7418 180.26C69.8062 179.12 70.6845 178.247 71.349 177.437Z" fill="#FFCC3F"/>
<path d="M278.67 117.759C278.94 117.919 279.166 118.062 279.335 118.166C278.967 117.881 278.754 117.761 278.67 117.759Z" fill="#FFCC3F"/>
<path d="M146.512 64.948C147.029 64.4309 147.539 63.9234 148.046 63.3997C147.526 63.9006 147.019 64.4243 146.512 64.948Z" fill="#FFCC3F"/>
<path d="M119.953 108.298C119.907 108.039 119.891 107.717 119.925 107.344C119.749 108.184 119.738 108.544 119.953 108.298Z" fill="#FFCC3F"/>
<path d="M121.03 102.962C121.03 102.962 121.855 100.806 121.657 100.725C121.399 100.629 120.307 103.208 120.226 103.364C120.949 102.368 120.04 105.314 119.919 107.353C120.241 105.879 120.648 104.422 121.024 102.972C121.182 102.502 120.901 103.452 121.024 102.972L121.03 102.962Z" fill="#FFCC3F"/>
<path d="M289.647 138.2C289.75 139.107 289.731 140.311 289.747 141.525C289.686 143.946 289.346 146.341 289.346 146.341C289.857 145.608 290.002 144.081 290.185 143.19C290.149 142.796 290.173 142.092 290.136 141.273C290.1 140.837 289.555 136.466 289.585 136.444C289.548 136.517 289.53 136.604 289.538 136.694C289.538 136.694 289.586 137.294 289.654 138.191C289.577 137.287 289.757 139.098 289.654 138.191L289.647 138.2Z" fill="#FFCC3F"/>
<path d="M274.605 172.615L274.047 173.415C277.558 169.906 278.203 168.615 278.94 167.459C279.622 166.237 280.425 165.127 283.058 160.949C281.352 163.495 279.453 165.892 277.386 168.144C276.497 169.661 275.567 171.135 274.605 172.615C274.266 173.101 274.934 172.123 274.605 172.615Z" fill="#FFCC3F"/>
<path d="M265.179 179.102L266.624 177.619C265.206 178.88 264.935 179.187 265.179 179.102Z" fill="#FFCC3F"/>
<path d="M262.797 182.493C263.082 182.693 267.064 178.975 267.396 178.682C268.794 177.45 270.648 176.111 271.724 174.569C270.947 175.683 269.269 176.607 268.182 177.434C267.944 177.268 265.605 178.976 265.187 179.108C264.115 180.158 263.052 181.214 261.936 182.205C262.807 181.524 264.506 180.105 265.197 179.724C264.969 179.989 262.892 182.56 262.806 182.5L262.797 182.493Z" fill="#FFCC3F"/>
<path d="M256.825 185.415C257.09 185.359 257.443 185.238 257.656 185.217C257.685 185.095 257.358 185.178 256.825 185.415Z" fill="#FFCC3F"/>
<path d="M139.995 183.602C138.548 182.45 137.1 181.299 137.1 181.299C137.1 181.299 141.261 185.094 141.337 185.005L143.002 185.743C142.003 185.045 140.928 184.395 139.995 183.602C140.7 184.193 138.548 182.45 139.995 183.602Z" fill="#FFCC3F"/>
<path d="M119.032 150.672C119.179 150.888 119.27 150.838 119.305 150.565C119.206 150.524 119.102 150.551 119.032 150.672Z" fill="#FFCC3F"/>
<path d="M78.7449 191.162C78.2668 191.989 77.8522 192.704 77.2148 193.76C77.9018 192.796 78.3609 191.955 78.7449 191.162Z" fill="#FFCC3F"/>
<path d="M118.575 152.321C118.575 152.321 119.208 152.692 119.22 152.714L118.425 150.446L118.575 152.321Z" fill="#FFCC3F"/>
<path d="M74.4658 199.201C74.4658 199.201 74.7143 198.723 74.9694 198.236C75.2369 197.772 75.511 197.298 75.511 197.298C76.5635 195.81 76.6404 195.071 75.5746 196.578C75.5746 196.578 75.2808 197.222 74.9964 197.873C74.7312 198.537 74.4754 199.208 74.4754 199.208L74.4658 199.201Z" fill="#FFCC3F"/>
<path d="M66.8605 210.3C68.0527 208.145 69.34 206.057 70.6369 203.975L67.7589 207.572L66.8605 210.3Z" fill="#FFCC3F"/>
<path d="M54.9634 185.762C53.2155 191.492 51.8779 199.434 51.1833 204.851C52.9642 198.323 53.4258 192.205 54.9634 185.762Z" fill="#FFCC3F"/>
<path d="M59.3228 189.922C58.6071 191.475 57.4527 193.515 59.5109 190.464L57.0762 196.691C62.7274 188.675 59.9533 189.952 59.3294 189.913C58.6137 191.466 59.9695 189.949 59.3294 189.913L59.3228 189.922Z" fill="#FFCC3F"/>
<path d="M95.4103 148.596C96.9615 146.819 97.6912 145.672 96.8545 145.796C94.6334 148.025 92.4856 150.292 90.337 152.6L93.8506 149.249C92.4899 151.3 91.4307 152.655 89.1981 155.428C91.5861 152.919 93.8619 150.389 95.4036 148.605C93.8619 150.389 96.9549 146.829 95.4036 148.605L95.4103 148.596Z" fill="#FFCC3F"/>
<path d="M83.5912 161.662C84.2586 160.868 85.0752 160.022 85.8965 159.109C85.0777 159.755 84.4628 160.048 83.5912 161.662Z" fill="#FFCC3F"/>
<path d="M88.4559 156.411C88.7539 156.024 88.9561 155.755 89.2047 155.419C88.0768 156.67 86.9489 157.921 85.8932 159.109C86.4954 158.652 87.2533 157.992 88.4493 156.42C87.2467 158.001 88.7473 156.034 88.4493 156.42L88.4559 156.411Z" fill="#FFCC3F"/>
<path d="M102.575 141.636C106.301 138.447 110.096 135.32 114.004 132.358C114.054 132.307 114.113 132.263 114.162 132.213C114.162 132.213 114.116 132.238 114.045 132.259L113.99 132.277C112.689 133.167 111.417 134.077 110.139 134.996C109.641 136.277 107.686 137.233 106.633 137.971C105.214 138.99 103.506 140.119 102.575 141.636Z" fill="#FFCC3F"/>
<path d="M150.99 57.2315C154.384 53.7264 157.883 50.9448 160.664 49.4746C160.113 49.6561 161.266 48.5923 161.927 47.9076C162.82 47.1152 162.85 46.7681 157.785 50.3953C154.68 53.4236 151.339 56.2439 148.386 59.4204C144.535 63.1733 140.936 67.5403 138.493 70.3508L140.175 69.5431C143.461 65.5237 147.231 61.0347 150.99 57.2315C154.384 53.7264 147.231 61.0347 150.99 57.2315Z" fill="#FFCC3F"/>
<path d="M160.656 49.4844C160.799 49.4424 161.053 49.3222 161.451 49.0763C161.197 49.1965 160.923 49.3452 160.656 49.4844Z" fill="#FFCC3F"/>
<path d="M169.881 45.1506C170.357 44.8741 175.41 42.4414 175.244 41.929C175.198 41.8121 174.679 41.9878 174.679 41.9878C173.531 43.1258 172.562 43.3981 171.467 43.7096C171.003 43.8672 166.967 45.8773 167.278 46.1222C167.588 46.3671 169.527 45.2718 169.888 45.1411C168.605 45.6192 171.485 44.2317 169.888 45.1411L169.881 45.1506Z" fill="#FFCC3F"/>
<path d="M156.186 73.3567C156.186 73.3567 156.617 72.9216 157.046 72.4702C157.496 72.0484 157.946 71.6264 157.946 71.6264L159.198 68.7776C158.184 70.2919 157.125 71.7892 156.186 73.3567Z" fill="#FFCC3F"/>
<path d="M133.82 117.537C133.575 117.889 133.342 118.364 133.342 118.364C133.342 118.364 133.371 119.134 133.448 119.612C133.484 119.864 133.547 120.078 133.662 120.299C133.688 120.303 133.77 120.205 133.757 120.224C133.783 120.186 133.651 120.334 133.696 120.21C133.827 119.028 134.039 117.873 134.292 116.719C134.258 116.808 134.202 117.01 134.113 117.076C134.034 117.19 133.927 117.342 133.801 117.523C133.918 117.336 133.555 117.875 133.801 117.523L133.82 117.537Z" fill="#FFCC3F"/>
<path d="M135.825 119.531C135.25 119.95 134.851 120.521 134.228 120.907C134.228 120.907 135.256 120.266 136.284 119.624C138.008 118.634 139.74 117.634 139.74 117.634L136.858 118.964C136.504 119.127 136.14 119.283 135.822 119.515C135.63 119.649 135.927 119.446 135.822 119.515L135.825 119.531Z" fill="#FFCC3F"/>
<path d="M149.846 112.302C148.063 113.294 146.308 114.348 146.308 114.348C149.413 112.637 152.59 111.046 155.776 109.463C154.747 110.004 154.09 110.196 153.438 110.379C153.438 110.379 151.634 111.342 149.829 112.305C148.047 113.297 151.634 111.342 149.829 112.305L149.846 112.302Z" fill="#FFCC3F"/>
</svg>
