<svg width="223" height="245" viewBox="0 0 223 245" fill="none" xmlns="http://www.w3.org/2000/svg">
<path d="M9.1879 223.237C16.0219 233.693 26.7462 242.153 39.1 244.045C42.7273 244.57 46.4072 244.57 50.0345 244.202C78.7901 241.47 103.393 215.092 104.076 186.193C111.909 193.759 120.32 201.378 130.781 204.531C136.669 206.265 142.872 206.528 149.023 206.265C172.679 205.214 197.335 195.546 210.109 175.631C214.367 168.958 217.153 161.444 219.361 153.878C222.358 143.842 224.461 132.702 220.202 123.087C218.205 118.568 214.893 114.732 211.581 111.001C203.485 101.964 194.233 92.821 182.352 90.2463C173.258 88.2496 163.848 90.3514 154.806 92.4532C157.855 80.473 160.956 68.2826 160.641 55.8821C160.326 43.5341 156.225 30.7132 146.92 22.5162C143.871 19.8364 140.402 17.6821 137.721 14.6871C136.196 12.9531 134.777 10.9038 133.252 9.11733C132.569 8.74951 131.833 8.43425 131.097 8.11898C130.045 7.64608 129.047 7.12063 128.048 6.59518C126.996 6.06974 125.892 5.49174 124.841 4.91375C123.79 4.33576 122.738 3.75777 121.687 3.17978C120.478 2.4967 119.216 1.86616 117.954 1.23563C117.744 1.13054 117.534 1.07799 117.324 0.972902C116.483 0.657634 115.589 0.5 114.695 0.5C112.803 0.5 110.858 1.07799 109.07 1.76107C93.9827 7.48844 82.3123 20.0992 74.6897 34.2862C67.0671 48.4733 63.1243 64.3418 59.6021 80.0526C54.0298 71.0675 42.2542 66.9165 31.9506 69.2284C21.6469 71.5404 13.1307 79.5797 8.97765 89.3005C4.87722 99.0213 4.82466 110.161 7.50571 120.354C9.45079 127.711 12.8152 134.699 17.3362 140.794C18.5979 142.528 19.9121 145.05 18.3876 146.522C-1.95686 165.648 -6.05727 199.802 9.29306 223.184L9.1879 223.237ZM220.991 141.11C218.678 144.157 217.206 147.783 216.733 151.566C215.524 148.991 215.419 145.891 216.365 143.264C216.733 142.266 217.258 141.32 218.152 140.742C219.046 140.216 220.36 140.269 220.991 141.11ZM215.313 123.349C216.312 124.348 216.628 125.872 216.838 127.29C217.311 129.918 217.784 132.545 218.205 135.172L214.577 131.914C216.049 131.284 215.681 129.129 215.051 127.658C214.367 126.187 213.894 124.085 215.313 123.349ZM211.055 112.788C212.422 115.1 213.158 117.78 213.158 120.459C211.265 119.934 210.109 117.727 210.687 115.888H210.424C209.636 114.522 208.795 113.103 208.006 111.685C208.742 110.634 210.372 111.685 211.055 112.788ZM93.0364 207.841C92.6684 208.262 92.0376 208.472 91.5119 208.472C91.0914 208.472 90.6708 208.314 90.4079 207.999L91.8273 206.58H91.985C91.2491 205.424 93.457 203.953 94.193 205.109C93.9827 206.055 93.7725 207.106 93.089 207.841H93.0364ZM96.5586 200.643C96.0855 200.17 95.6124 199.749 95.1393 199.276L94.8764 199.382C94.1404 197.91 94.9815 195.809 96.6112 195.388C97.5049 197.017 97.4523 199.066 96.506 200.643H96.5586ZM101.29 190.607C101.29 191.92 100.449 193.181 99.2397 193.759C98.2934 193.234 97.978 191.868 98.5563 190.922C99.1345 190.029 100.501 189.713 101.395 190.344L101.29 190.607ZM100.606 181.884C101.185 182.83 101.605 184.039 101.132 185.037C100.869 185.615 100.238 185.93 99.6076 185.93C99.1345 185.93 98.714 185.72 98.5563 185.247C98.9768 184.827 99.4499 184.354 99.8705 183.933H99.9231C99.6603 183.198 99.9231 182.305 100.606 181.884ZM162.008 96.394C162.639 96.6042 163.27 96.8144 163.9 97.0246C163.848 97.6026 163.269 98.0754 162.691 98.0754C162.586 98.0754 162.534 98.0754 162.428 98.0754C161.798 97.9178 161.377 97.1297 161.64 96.4991H162.008V96.394ZM155.962 37.1762H155.91C156.173 37.8593 155.91 38.7525 155.279 39.1729C154.858 38.6474 154.438 38.0169 154.595 37.3864C154.753 36.7558 155.91 36.5456 156.015 37.2287L155.962 37.1762ZM153.702 64.0791C153.492 69.859 153.176 75.9016 150.337 80.9984C149.969 81.629 149.601 82.312 149.549 82.9951C149.496 83.9409 150.074 84.8342 150.442 85.7274C150.81 86.6207 150.758 87.8818 149.917 88.3021C149.759 88.4072 149.549 88.4072 149.339 88.4072C148.76 88.4072 148.182 88.0394 147.814 87.6191C146.342 85.9902 146.71 83.4155 147.656 81.4188C148.55 79.4221 149.969 77.6356 150.442 75.5338C151.073 72.7489 150.127 69.859 150.6 67.0741C150.916 65.2876 151.862 63.5536 151.862 61.7145C151.862 60.2958 151.231 58.9822 151.073 57.5635C150.916 56.1448 151.494 54.4634 152.808 54.0956C153.965 57.2482 153.86 60.7162 153.702 64.0791ZM151.914 30.503H151.809C152.072 31.1861 151.809 32.0793 151.178 32.4997C150.758 31.9743 150.337 31.3437 150.495 30.7132C150.653 30.0301 151.809 29.8725 151.914 30.503ZM149.549 35.0219C151.599 37.1762 152.44 40.3814 151.652 43.2188C149.812 40.9594 149.023 37.8593 149.549 35.0219ZM143.083 21.6755C144.66 23.3044 146.184 24.9333 147.761 26.5622C147.446 27.2452 146.184 26.4045 146.658 25.8265L146.447 25.6164C146.184 25.7214 145.921 25.774 145.606 25.774C143.766 25.774 142.031 23.3569 143.083 21.6755ZM95.1393 17.8923C95.665 17.8923 95.7175 18.9957 95.1393 19.0483C94.561 19.0483 94.561 17.9448 95.1393 17.8923ZM95.1393 28.5589C95.7175 28.5589 95.7175 29.6623 95.1393 29.7148C94.6136 29.6623 94.6136 28.6114 95.1393 28.5589ZM91.3016 32.7099C91.5119 32.9726 91.6171 33.3404 91.6171 33.6557C91.6171 34.1286 91.3017 34.6015 91.0388 35.0219C88.9361 38.2271 86.3601 41.117 83.4688 43.5866C84.2573 39.0678 87.2538 34.9168 91.3016 32.7624V32.7099ZM81.7865 29.8199C82.5751 30.2403 82.7328 31.5014 82.1019 32.1319C81.4711 32.7624 80.2621 32.6048 79.7889 31.8166C80.4724 31.1861 81.1031 30.503 81.7865 29.8199ZM80.8403 48.5258C81.1032 50.4174 80.4198 52.4141 79.053 53.7278V53.8328C77.7913 52.0463 78.7375 49.1564 80.8403 48.4733V48.5258ZM71.8509 70.0166C74.6371 65.4978 72.1138 58.1415 76.5822 55.199C77.8964 57.0906 76.9501 59.6653 76.0565 61.8196C73.7434 67.5995 72.3766 73.7473 72.0086 79.9475C71.956 81.2086 71.7457 82.7324 70.5366 83.2053C69.9584 80.2103 70.2738 77.0576 71.3778 74.2202C69.8007 73.6947 70.9047 71.3828 71.7983 69.9641L71.8509 70.0166ZM72.8497 107.218C71.3252 106.43 70.2212 104.854 70.0635 103.172H69.8007C68.907 102.647 68.907 101.123 69.7481 100.598C71.7983 102.121 73.0074 104.696 72.8497 107.271V107.218ZM69.5904 91.1396C71.9035 93.0837 71.9035 97.1296 69.5904 99.0738C69.0122 98.128 68.8545 96.8669 69.1173 95.816C68.8545 94.2397 69.0121 92.6108 69.5378 91.1396H69.5904ZM20.3326 80.2103C21.2789 79.2119 22.9086 79.1594 24.328 79.1594L24.9588 79.3696C24.3279 80.5255 23.5394 81.5764 22.5932 82.4697C22.2777 82.785 21.9098 83.1002 21.4366 83.2053C21.3841 83.2053 21.279 83.2053 21.2264 83.2053C19.9647 83.2053 19.439 81.1561 20.3853 80.1577L20.3326 80.2103ZM24.3805 88.4598C23.6971 87.7767 23.0137 87.0936 22.3303 86.4105C22.9611 86.1478 23.6445 85.8326 24.2754 85.5698L24.3805 85.8325C25.2742 86.4105 25.2742 87.9343 24.3805 88.5123V88.4598ZM23.1714 151.881C22.2778 154.824 21.3315 157.766 20.3853 160.709C25.1691 151.671 37.7332 151.724 47.6163 149.044C43.621 143.316 36.9972 139.428 30.058 138.692C21.0686 137.747 16.2848 127.816 14.0769 119.093C11.869 110.318 11.0279 99.6518 17.7568 93.5566L18.8607 97.9178C24.9062 87.4089 38.8898 82.2595 50.2974 86.358C52.8207 87.2513 55.2914 88.6174 56.9737 90.7192C60.601 95.2906 59.8124 102.332 63.5449 106.798C65.3848 109.005 68.2762 110.213 71.1675 110.213C72.9549 110.213 74.7422 109.74 76.3193 108.795C69.2224 80.3154 79.0529 48.3157 100.869 28.769C106.599 23.6197 114.695 19.1008 121.634 22.306C128.941 25.6689 130.519 35.2846 130.624 43.3239C130.834 69.0182 125.682 94.8177 115.641 118.463C118.428 120.302 120.32 123.507 120.478 126.87C127.259 129.445 134.619 124.663 139.35 119.146C144.082 113.629 147.919 106.955 154.49 103.803C157.329 102.437 160.483 101.859 163.637 101.491C176.149 100.125 190.185 103.067 197.808 113.103C204.747 122.246 204.589 135.382 199.7 145.733C194.811 156.085 185.874 164.019 176.254 170.272C164.952 177.628 152.388 183.04 139.245 186.298C131.938 188.084 124.263 189.188 116.956 187.401C109.648 185.615 102.814 180.518 100.764 173.267C100.028 170.692 99.9231 167.96 98.7666 165.543C97.61 163.126 94.8238 161.182 92.3005 162.127C90.5131 170.429 87.4641 178.469 83.3111 185.878C77.1605 196.859 68.3813 206.685 57.0788 212.308C47.5112 217.089 36.4189 218.665 25.8525 216.721C28.2181 217.352 30.3735 218.665 31.9506 220.557C25.2216 220.61 18.5979 216.826 15.2335 210.994C15.0757 213.253 11.4484 211.835 10.3444 209.891C5.24518 201.01 3.72064 190.081 6.29655 180.15C7.0851 176.998 8.29419 173.635 7.03252 170.64C12.4472 164.387 17.8093 158.134 23.224 151.881H23.1714ZM22.488 149.149C22.5406 148.623 23.592 148.623 23.6445 149.149C23.592 149.727 22.5406 149.727 22.488 149.149Z" fill="#E61B44"/>
<path d="M69.9042 148.151C70.5876 148.571 71.4287 148.939 71.639 149.674C74.2149 156.925 82.5734 160.761 90.2486 160.604C99.6585 160.446 108.858 155.139 113.8 147.1C114.641 145.733 115.324 144.315 115.745 142.844C116.849 138.535 115.377 133.963 113.432 129.97C113.011 129.129 112.328 128.184 111.434 128.394C110.172 128.709 110.593 130.601 111.276 131.652C111.96 132.755 112.38 134.541 111.171 134.962C110.12 134.331 109.016 133.648 108.385 132.597C107.754 131.494 107.859 129.918 108.911 129.287C107.334 127.133 105.704 124.978 104.127 122.771C103.023 121.248 101.866 119.724 100.447 118.41C99.1854 117.254 97.7135 116.308 96.0838 115.678C92.9822 114.417 89.5652 114.312 86.2008 114.312C85.8854 114.312 85.5699 114.312 85.2019 114.312C82.3632 114.312 79.3142 114.417 77.0011 116.046C73.4264 118.62 70.4824 121.983 68.4322 125.872C65.5409 131.389 64.6472 138.115 66.8551 143.894C67.4859 145.523 68.3797 147.1 69.8516 148.045L69.9042 148.151ZM110.803 140.269L110.961 139.376C112.538 141.372 111.802 144.735 109.542 145.891C108.648 144.052 109.174 141.582 110.751 140.269H110.803ZM73.6892 124.505C74.1623 124.085 74.5828 123.665 75.056 123.192C76.3176 124.873 75.5291 127.658 73.584 128.499C72.6903 127.395 72.743 125.609 73.6366 124.505H73.6892ZM74.7931 134.804C75.4765 133.963 76.1599 133.07 76.8433 132.229C76.4227 135.435 76.0548 138.64 75.7919 141.898C78.4204 140.637 77.7371 136.486 79.6296 134.279C80.5233 133.175 81.9426 132.65 83.3094 132.177C86.2008 131.179 89.0921 130.128 91.9834 129.129C92.6142 128.919 93.2977 128.656 93.9811 128.709C95.8736 128.709 97.2404 130.811 97.1878 132.702C97.1352 134.594 96.0312 136.275 94.7696 137.747C92.6668 140.164 90.0383 142.213 87.147 143.684C83.3094 145.628 78.473 146.469 74.7406 144.367C73.7943 143.842 72.9532 143.106 72.5326 142.16C71.4287 139.743 73.1635 137.011 74.8457 134.962L74.7931 134.804Z" fill="#E61B44"/>
<path d="M104.707 170.062C104.707 170.062 104.287 169.799 103.971 169.799C103.498 169.799 102.972 170.062 102.71 170.482C102.289 171.113 102.289 171.953 102.289 172.689C102.289 174.738 102.71 177.313 104.707 177.891C105.18 175.684 105.338 173.425 105.075 171.218C105.023 170.85 104.97 170.429 104.707 170.114V170.062Z" fill="#E61B44"/>
</svg>
