<svg width="30" height="31" viewBox="0 0 30 31" fill="none" xmlns="http://www.w3.org/2000/svg">
<path d="M5.3125 13.1875C5.3125 10.3752 5.3125 8.96905 6.02869 7.98331C6.25998 7.66495 6.53995 7.38498 6.85831 7.15369C7.84405 6.4375 9.2502 6.4375 12.0625 6.4375H18.4743C22.888 6.4375 25.0948 6.4375 26.2078 7.63781C26.5588 8.0164 26.8279 8.46339 26.9981 8.9508C27.538 10.4961 26.5051 12.4463 24.4393 16.3467L24.3069 16.5967C23.4858 18.1472 23.0752 18.9224 22.4179 19.4223C22.2021 19.5865 21.969 19.7267 21.7229 19.8406C20.9735 20.1875 20.0963 20.1875 18.3419 20.1875H12.0625C9.2502 20.1875 7.84405 20.1875 6.85831 19.4713C6.53995 19.24 6.25998 18.96 6.02869 18.6417C5.3125 17.6559 5.3125 16.2498 5.3125 13.4375V13.1875Z" fill="black"/>
<path d="M12.5 24.25C12.5 25.6307 11.3807 26.75 10 26.75C8.61929 26.75 7.5 25.6307 7.5 24.25C7.5 22.8693 8.61929 21.75 10 21.75C11.3807 21.75 12.5 22.8693 12.5 24.25Z" fill="black"/>
<path d="M22.5 24.25C22.5 25.6307 21.3807 26.75 20 26.75C18.6193 26.75 17.5 25.6307 17.5 24.25C17.5 22.8693 18.6193 21.75 20 21.75C21.3807 21.75 22.5 22.8693 22.5 24.25Z" fill="black"/>
<path d="M7 7.375C7 6.96079 6.66421 6.625 6.25 6.625C5.83579 6.625 5.5 6.96079 5.5 7.375H7ZM5.5 14.875C5.5 15.2892 5.83579 15.625 6.25 15.625C6.66421 15.625 7 15.2892 7 14.875H5.5ZM3.75 4.125C3.33579 4.125 3 4.46079 3 4.875C3 5.28921 3.33579 5.625 3.75 5.625V4.125ZM6.25 14.875H7V7.375H6.25H5.5V14.875H6.25ZM6.25 14.875H7V7.375H6.25H5.5V14.875H6.25ZM6.25 7.375H7C7 5.58007 5.54493 4.125 3.75 4.125V4.875V5.625C4.7165 5.625 5.5 6.4085 5.5 7.375H6.25Z" fill="black"/>
</svg>
