<?xml version="1.0" encoding="UTF-8"?>
<!DOCTYPE svg PUBLIC "-//W3C//DTD SVG 1.1//EN" "http://www.w3.org/Graphics/SVG/1.1/DTD/svg11.dtd">
<svg xmlns="http://www.w3.org/2000/svg" version="1.1" width="512px" height="512px" style="shape-rendering:geometricPrecision; text-rendering:geometricPrecision; image-rendering:optimizeQuality; fill-rule:evenodd; clip-rule:evenodd" xmlns:xlink="http://www.w3.org/1999/xlink">
<g><path style="opacity:0.965" fill="#000000" d="M 234.5,31.5 C 319.59,26.8054 387.757,58.1387 439,125.5C 484.795,195.324 492.128,268.991 461,346.5C 423.571,423.895 362.071,468.061 276.5,479C 191.387,484.184 123.221,453.017 72,385.5C 26.2165,315.772 18.8832,242.105 50,164.5C 87.5858,87.0924 149.086,42.7591 234.5,31.5 Z M 237.5,64.5 C 317.982,60.8183 379.482,92.8183 422,160.5C 454.809,221.665 455.809,283.331 425,345.5C 387.495,410.109 331.162,444.109 256,447.5C 174.111,443.586 115.445,404.919 80,331.5C 52.2698,259.564 61.9364,193.231 109,132.5C 143.18,93.6582 186.013,70.9915 237.5,64.5 Z"/></g>
<g><path style="opacity:0.96" fill="#000000" d="M 321.5,170.5 C 335.389,171.258 341.556,178.591 340,192.5C 339,194.5 338,196.5 337,198.5C 317.348,216.985 298.181,235.985 279.5,255.5C 298.515,275.348 318.015,294.681 338,313.5C 343.732,325.072 340.898,333.905 329.5,340C 324.266,340.977 319.266,340.31 314.5,338C 294.986,318.319 275.32,298.819 255.5,279.5C 235.985,298.181 216.985,317.348 198.5,337C 191.167,341.667 183.833,341.667 176.5,337C 170.931,330.083 170.097,322.583 174,314.5C 192.985,294.681 212.152,275.014 231.5,255.5C 212.847,236.347 194.014,217.347 175,198.5C 168.81,184.544 173.144,175.544 188,171.5C 191.666,172.087 195.166,173.254 198.5,175C 217.347,194.014 236.347,212.847 255.5,231.5C 274.986,212.514 294.32,193.347 313.5,174C 316.158,172.522 318.825,171.355 321.5,170.5 Z"/></g>
</svg>
