<svg width="26" height="27" viewBox="0 0 26 27" fill="none" xmlns="http://www.w3.org/2000/svg">
<path d="M1.36578 18.6465C1.65084 17.9814 1.79337 17.6488 1.94672 17.3534C3.38506 14.5826 6.15649 12.7552 9.26979 12.5246C9.60172 12.5 9.96355 12.5 10.6872 12.5H15.3128C16.0365 12.5 16.3983 12.5 16.7302 12.5246C19.8435 12.7552 22.6149 14.5826 24.0533 17.3534C24.2066 17.6488 24.3492 17.9814 24.6342 18.6465C24.9691 19.4279 25.1366 19.8187 25.2231 20.1201C26.0698 23.0688 24.0858 26.0775 21.0421 26.4608C20.7309 26.5 20.3058 26.5 19.4557 26.5H6.54435C5.69417 26.5 5.26908 26.5 4.95793 26.4608C1.91415 26.0775 -0.0697839 23.0688 0.776882 20.1201C0.863433 19.8187 1.03088 19.4279 1.36578 18.6465Z" fill="black"/>
<path d="M7.83432 5.5C7.83432 2.73858 10.1501 0.5 13.0067 0.5C15.8634 0.5 18.1791 2.73858 18.1791 5.5C18.1791 8.26142 15.8634 10.5 13.0067 10.5C10.1501 10.5 7.83432 8.26142 7.83432 5.5Z" fill="black"/>
</svg>
