<svg width="185" height="185" viewBox="0 0 185 185" fill="none" xmlns="http://www.w3.org/2000/svg">
<path d="M97.7712 1.86876C93.6011 0.472133 91.0493 0.472133 86.8792 1.86876C76.7061 5.27584 77.1473 26.8373 80.291 48.1103C72.3318 28.1334 61.8907 9.26357 51.3818 11.4232C47.074 12.3085 44.867 13.5894 41.9613 16.8905C34.9734 24.8295 45.7632 42.85 58.9057 59.475C42.2518 46.3691 24.2076 35.6189 16.284 42.6242C12.9892 45.5372 11.7132 47.747 10.8374 52.0567C8.7154 62.4988 27.3374 72.8284 47.1799 80.7233C26.0485 77.6379 4.75656 77.2714 1.37267 87.3753C-0.0239612 91.5454 -0.0239612 94.0972 1.37266 98.2673C4.75656 108.371 26.0485 108.005 47.1799 104.919C27.3374 112.814 8.71532 123.144 10.8373 133.586C11.7131 137.896 12.9892 140.105 16.2839 143.018C24.2074 150.024 42.2513 139.274 58.9051 126.168C45.7627 142.793 34.9732 160.813 41.9611 168.752C44.8668 172.053 47.0738 173.334 51.3816 174.219C61.8906 176.379 72.3319 157.509 80.2911 137.531C77.1473 158.805 76.7059 180.367 86.8792 183.774C91.0493 185.17 93.6011 185.17 97.7712 183.774C107.945 180.367 107.503 158.804 104.359 137.53C112.318 157.508 122.76 176.379 133.269 174.219C137.577 173.334 139.784 172.053 142.69 168.752C149.678 160.813 138.888 142.793 125.746 126.168C142.399 139.274 160.443 150.024 168.367 143.018C171.662 140.105 172.938 137.896 173.813 133.586C175.935 123.144 157.313 112.814 137.471 104.919C158.602 108.005 179.894 108.371 183.278 98.2673C184.674 94.0972 184.674 91.5454 183.278 87.3753C179.894 77.2715 158.602 77.6379 137.471 80.7232C157.313 72.8283 175.935 62.4987 173.813 52.0567C172.937 47.747 171.661 45.5372 168.367 42.6242C160.443 35.6189 142.399 46.3691 125.745 59.475C138.888 42.85 149.677 24.8295 142.689 16.8905C139.784 13.5894 137.577 12.3085 133.269 11.4232C122.76 9.26353 112.318 28.1342 104.359 48.1115C107.503 26.8381 107.945 5.2759 97.7712 1.86876Z" fill="#FFCC3F"/>
</svg>
