<svg width="253" height="108" viewBox="0 0 253 108" fill="none" xmlns="http://www.w3.org/2000/svg">
<path d="M50.1 51.85C47.1333 51.85 44.3667 51.3667 41.8 50.4C38.4 49.1333 36.7 47.3333 36.7 45C36.7 43.7 37.1167 42.5833 37.95 41.65C38.8167 40.6833 39.9333 40.2 41.3 40.2C42.2667 40.2 43.65 40.5333 45.45 41.2C47.2833 41.8333 48.7 42.15 49.7 42.15C52.2667 42.15 53.55 41.1333 53.55 39.1C53.55 38.1 52.1 37.1833 49.2 36.35C45.3 35.25 42.6333 34.2333 41.2 33.3C38.3 31.4333 36.85 28.7167 36.85 25.15C36.85 21.35 38.2333 18.2667 41 15.9C43.6 13.6667 46.7667 12.55 50.5 12.55C52.7333 12.55 54.9833 13.0167 57.25 13.95C60.1167 15.1833 61.55 16.8 61.55 18.8C61.55 20.1 61.1333 21.25 60.3 22.25C59.4667 23.25 58.35 23.75 56.95 23.75C56.1833 23.75 55.0833 23.5 53.65 23C52.2167 22.5 51.1 22.25 50.3 22.25C48.4 22.25 47.45 22.9167 47.45 24.25C47.45 24.95 48.9 25.7167 51.8 26.55C55.4667 27.5833 58.1333 28.7167 59.8 29.95C62.7 32.0833 64.15 35.1 64.15 39C64.15 42.8667 62.7333 46.0167 59.9 48.45C57.2333 50.7167 53.9667 51.85 50.1 51.85ZM180.309 51.5C178.876 51.4 177.742 50.8333 176.909 49.8C176.109 48.7333 175.759 47.4333 175.859 45.9L178.009 15.2C178.109 13.7 178.642 12.4833 179.609 11.55C180.576 10.6167 181.776 10.2 183.209 10.3C184.642 10.4 185.759 10.9833 186.559 12.05C187.392 13.0833 187.759 14.3667 187.659 15.9L185.509 46.6C185.409 48.1 184.876 49.3167 183.909 50.25C182.942 51.1833 181.742 51.6 180.309 51.5Z" fill="#2571CE"/>
<path d="M79.2391 51.7C75.0724 51.9333 71.5724 50.6167 68.7391 47.75C66.0057 44.9833 64.5224 41.5333 64.2891 37.4C64.0891 33.3333 65.2224 29.75 67.6891 26.65C70.2557 23.4167 73.5724 21.6833 77.6391 21.45C79.8057 21.35 81.9224 21.7 83.9891 22.5C86.5557 23.5 87.8891 24.9167 87.9891 26.75C88.0557 27.8167 87.7891 28.8333 87.1891 29.8C86.4557 30.9667 85.4724 31.5833 84.2391 31.65C83.5724 31.6833 82.6057 31.5 81.3391 31.1C80.1057 30.7 79.1557 30.5167 78.4891 30.55C76.9891 30.6167 75.8391 31.25 75.0391 32.45C74.2391 33.65 73.8891 35.1333 73.9891 36.9C74.0891 38.5333 74.6057 39.9167 75.5391 41.05C76.5057 42.1833 77.6891 42.7 79.0891 42.6C79.7224 42.5667 80.6057 42.2833 81.7391 41.75C82.9057 41.1833 83.7891 40.8833 84.3891 40.85C85.5557 40.7833 86.5891 41.1667 87.4891 42C88.3891 42.8 88.8724 43.8 88.9391 45C89.0391 46.9333 87.8224 48.5667 85.2891 49.9C83.2891 51 81.2724 51.6 79.2391 51.7ZM211.631 36.95L198.681 41.45C199.548 42.3167 200.665 42.75 202.031 42.75C202.798 42.75 203.598 42.6 204.431 42.3C205.565 41.9 206.798 40.9667 208.131 39.5C209.465 38.0333 210.481 37.1667 211.181 36.9C211.581 36.7667 211.981 36.7 212.381 36.7C213.548 36.7 214.565 37.1167 215.431 37.95C216.331 38.7833 216.781 39.7667 216.781 40.9C216.781 42.7333 215.648 44.6833 213.381 46.75C211.348 48.65 209.115 50.0167 206.681 50.85C204.948 51.45 203.215 51.75 201.481 51.75C198.381 51.75 195.598 50.8167 193.131 48.95C190.698 47.0833 188.931 44.55 187.831 41.35C187.231 39.65 186.931 37.8833 186.931 36.05C186.931 32.9833 187.715 30.2333 189.281 27.8C190.981 25.2 193.298 23.4 196.231 22.4C197.698 21.9 199.181 21.65 200.681 21.65C203.748 21.65 206.598 22.6333 209.231 24.6C211.731 26.4333 213.431 28.6833 214.331 31.35C214.565 32.0167 214.681 32.65 214.681 33.25C214.681 35.0167 213.665 36.25 211.631 36.95ZM199.031 30.4C197.098 31.0667 196.115 32.4667 196.081 34.6L203.931 31.9C203.031 30.7333 201.915 30.15 200.581 30.15C200.081 30.15 199.565 30.2333 199.031 30.4Z" fill="#297D7F"/>
<path d="M99.5066 23.75C100.573 22.5833 102.123 22.0667 104.157 22.2C105.423 22.3 106.473 22.8 107.307 23.7C108.207 24.7333 108.607 26.0333 108.507 27.6C108.407 29.0667 107.59 30.1667 106.057 30.9C104.623 31.4 103.19 31.9 101.757 32.4C100.223 33.0667 99.4066 34.0333 99.3066 35.3L98.5566 46.3C98.4233 47.8 97.8733 49.0167 96.9066 49.95C95.94 50.8833 94.74 51.3 93.3066 51.2C91.9066 51.1 90.79 50.5333 89.9566 49.5C89.1233 48.4333 88.7566 47.15 88.8566 45.65L90.2066 26.1C90.34 24.5667 90.9733 23.3833 92.1066 22.55C93.1066 21.8167 94.24 21.5 95.5066 21.6C97.4733 21.7333 98.8066 22.45 99.5066 23.75Z" fill="#C60A3A"/>
<path d="M112.948 21.65C111.515 21.75 110.248 21.2833 109.148 20.25C108.048 19.2167 107.448 17.9833 107.348 16.55C107.282 15.1833 107.748 13.95 108.748 12.85C109.782 11.75 110.998 11.1667 112.398 11.1C113.798 11 115.048 11.45 116.148 12.45C117.282 13.4167 117.882 14.6 117.948 16C118.015 17.4667 117.565 18.7667 116.598 19.9C115.632 21 114.415 21.5833 112.948 21.65ZM114.498 51.5C113.065 51.6 111.865 51.1667 110.898 50.2C109.965 49.2667 109.465 48.05 109.398 46.55L108.398 27.35C108.298 25.85 108.665 24.5833 109.498 23.55C110.365 22.5167 111.515 21.95 112.948 21.85C114.382 21.7833 115.565 22.2333 116.498 23.2C117.465 24.1333 117.982 25.35 118.048 26.85L119.098 46.05C119.165 47.55 118.765 48.8167 117.898 49.85C117.065 50.8833 115.932 51.4333 114.498 51.5ZM160.504 51.55C158.104 50.9833 156.237 49.7833 154.904 47.95C154.07 48.7167 153.07 49.1 151.904 49.1C151.504 49.1 151.087 49.05 150.654 48.95C149.487 48.6833 148.57 48.1167 147.904 47.25C147.237 46.3833 146.904 45.35 146.904 44.15C146.904 43.6833 146.97 43.2167 147.104 42.75L154.004 12.75C154.304 11.4833 154.887 10.4667 155.754 9.7C156.62 8.93333 157.62 8.55 158.754 8.55C159.154 8.55 159.537 8.6 159.904 8.7C161.07 8.96667 161.987 9.55 162.654 10.45C163.32 11.3167 163.654 12.3333 163.654 13.5C163.654 13.9667 163.587 14.4333 163.454 14.9L161.804 22.15C163.67 21.65 165.587 21.6167 167.554 22.05C170.754 22.8167 173.204 24.5333 174.904 27.2C176.37 29.5333 177.104 32.3333 177.104 35.6C177.104 37.1 176.937 38.5833 176.604 40.05C175.837 43.3167 174.27 46.0667 171.904 48.3C169.37 50.6667 166.504 51.85 163.304 51.85C162.37 51.85 161.437 51.75 160.504 51.55ZM164.354 30.65C164.02 30.5833 163.704 30.55 163.404 30.55C162.304 30.55 161.337 31 160.504 31.9C159.67 32.7667 159.087 33.9333 158.754 35.4C158.587 36.1333 158.504 36.85 158.504 37.55C158.504 38.9167 158.804 40.05 159.404 40.95C160.137 42.0167 161.137 42.55 162.404 42.55C163.904 42.55 165.154 41.75 166.154 40.15C167.02 38.75 167.454 37.2333 167.454 35.6C167.454 32.8 166.42 31.15 164.354 30.65Z" fill="#E61B44"/>
<path d="M132.281 51.55C129.881 50.9833 128.014 49.7833 126.681 47.95C125.848 48.7167 124.848 49.1 123.681 49.1C123.281 49.1 122.864 49.05 122.431 48.95C121.264 48.6833 120.348 48.1167 119.681 47.25C119.014 46.3833 118.681 45.35 118.681 44.15C118.681 43.6833 118.748 43.2167 118.881 42.75L125.781 12.75C126.081 11.4833 126.664 10.4667 127.531 9.7C128.398 8.93333 129.398 8.55 130.531 8.55C130.931 8.55 131.314 8.6 131.681 8.7C132.848 8.96667 133.764 9.55 134.431 10.45C135.098 11.3167 135.431 12.3333 135.431 13.5C135.431 13.9667 135.364 14.4333 135.231 14.9L133.581 22.15C135.448 21.65 137.364 21.6167 139.331 22.05C142.531 22.8167 144.981 24.5333 146.681 27.2C148.148 29.5333 148.881 32.3333 148.881 35.6C148.881 37.1 148.714 38.5833 148.381 40.05C147.614 43.3167 146.048 46.0667 143.681 48.3C141.148 50.6667 138.281 51.85 135.081 51.85C134.148 51.85 133.214 51.75 132.281 51.55ZM136.131 30.65C135.798 30.5833 135.481 30.55 135.181 30.55C134.081 30.55 133.114 31 132.281 31.9C131.448 32.7667 130.864 33.9333 130.531 35.4C130.364 36.1333 130.281 36.85 130.281 37.55C130.281 38.9167 130.581 40.05 131.181 40.95C131.914 42.0167 132.914 42.55 134.181 42.55C135.681 42.55 136.931 41.75 137.931 40.15C138.798 38.75 139.231 37.2333 139.231 35.6C139.231 32.8 138.198 31.15 136.131 30.65Z" fill="#FFCC3F"/>
<path d="M22.5 75.05C21.9 71.8833 21.05 66.2167 19.95 58.05C19.9167 57.8167 19.9 57.5667 19.9 57.3C19.9 56.1333 20.2333 55 20.9 53.9C21.6 52.8 22.5667 51.9833 23.8 51.45C24.6 51.0833 25.45 50.9 26.35 50.9C28.5833 50.9 30.2667 51.75 31.4 53.45C34.2333 57.4167 37.0833 61.4 39.95 65.4C43.3833 70.1667 45.8833 74.35 47.45 77.95C47.7833 78.65 47.95 79.35 47.95 80.05C47.95 82.05 46.9667 83.4833 45 84.35C44.1 84.75 43.2833 84.95 42.55 84.95C40.95 84.95 39.5833 84.0667 38.45 82.3L30.1 69C30.8 72.6667 31.6833 78.2167 32.75 85.65C32.7833 85.95 32.8 86.25 32.8 86.55C32.8 88.7167 31.7167 90.2833 29.55 91.25C28.7167 91.6167 27.9 91.8 27.1 91.8C25.6 91.8 24.3167 91.1667 23.25 89.9L12.3 76.85C13.4333 80.15 14.9667 85.1667 16.9 91.9C17.1 92.6333 17.2 93.3 17.2 93.9C17.2 95.8 16.15 97.2167 14.05 98.15C13.3833 98.45 12.6833 98.6 11.95 98.6C9.95 98.6 8.51667 97.6333 7.65 95.7C6.05 92.1 4.61667 87.4333 3.35 81.7C2.28333 76.9 1.21667 72.1 0.15 67.3C0.05 66.9333 0 66.5333 0 66.1C0 64.9667 0.333333 63.8667 1 62.8C1.66667 61.7 2.6 60.8833 3.8 60.35C4.63333 59.9833 5.5 59.8 6.4 59.8C8.43333 59.8 10.0667 60.5167 11.3 61.95L22.5 75.05ZM180.321 92.5C178.887 92.4 177.754 91.8333 176.921 90.8C176.121 89.7333 175.771 88.4333 175.871 86.9L178.021 56.2C178.121 54.7 178.654 53.4833 179.621 52.55C180.587 51.6167 181.787 51.2 183.221 51.3C184.654 51.4 185.771 51.9833 186.571 53.05C187.404 54.0833 187.771 55.3667 187.671 56.9L185.521 87.6C185.421 89.1 184.887 90.3167 183.921 91.25C182.954 92.1833 181.754 92.6 180.321 92.5Z" fill="#297D7F"/>
<path d="M70.5785 77.95L57.6285 82.45C58.4952 83.3167 59.6118 83.75 60.9785 83.75C61.7452 83.75 62.5452 83.6 63.3785 83.3C64.5118 82.9 65.7452 81.9667 67.0785 80.5C68.4118 79.0333 69.4285 78.1667 70.1285 77.9C70.5285 77.7667 70.9285 77.7 71.3285 77.7C72.4952 77.7 73.5118 78.1167 74.3785 78.95C75.2785 79.7833 75.7285 80.7667 75.7285 81.9C75.7285 83.7333 74.5952 85.6833 72.3285 87.75C70.2952 89.65 68.0619 91.0167 65.6285 91.85C63.8952 92.45 62.1618 92.75 60.4285 92.75C57.3285 92.75 54.5452 91.8167 52.0785 89.95C49.6452 88.0833 47.8785 85.55 46.7785 82.35C46.1785 80.65 45.8785 78.8833 45.8785 77.05C45.8785 73.9833 46.6618 71.2333 48.2285 68.8C49.9285 66.2 52.2452 64.4 55.1785 63.4C56.6452 62.9 58.1285 62.65 59.6285 62.65C62.6952 62.65 65.5452 63.6333 68.1785 65.6C70.6785 67.4333 72.3785 69.6833 73.2785 72.35C73.5119 73.0167 73.6285 73.65 73.6285 74.25C73.6285 76.0167 72.6119 77.25 70.5785 77.95ZM57.9785 71.4C56.0452 72.0667 55.0618 73.4667 55.0285 75.6L62.8785 72.9C61.9785 71.7333 60.8618 71.15 59.5285 71.15C59.0285 71.15 58.5118 71.2333 57.9785 71.4ZM160.666 77.95L147.716 82.45C148.583 83.3167 149.7 83.75 151.066 83.75C151.833 83.75 152.633 83.6 153.466 83.3C154.6 82.9 155.833 81.9667 157.166 80.5C158.5 79.0333 159.516 78.1667 160.216 77.9C160.616 77.7667 161.016 77.7 161.416 77.7C162.583 77.7 163.6 78.1167 164.466 78.95C165.366 79.7833 165.816 80.7667 165.816 81.9C165.816 83.7333 164.683 85.6833 162.416 87.75C160.383 89.65 158.15 91.0167 155.716 91.85C153.983 92.45 152.25 92.75 150.516 92.75C147.416 92.75 144.633 91.8167 142.166 89.95C139.733 88.0833 137.966 85.55 136.866 82.35C136.266 80.65 135.966 78.8833 135.966 77.05C135.966 73.9833 136.75 71.2333 138.316 68.8C140.016 66.2 142.333 64.4 145.266 63.4C146.733 62.9 148.216 62.65 149.716 62.65C152.783 62.65 155.633 63.6333 158.266 65.6C160.766 67.4333 162.466 69.6833 163.366 72.35C163.6 73.0167 163.716 73.65 163.716 74.25C163.716 76.0167 162.7 77.25 160.666 77.95ZM148.066 71.4C146.133 72.0667 145.15 73.4667 145.116 75.6L152.966 72.9C152.066 71.7333 150.95 71.15 149.616 71.15C149.116 71.15 148.6 71.2333 148.066 71.4ZM242.133 74.5C241.867 72.1333 241.633 68.5167 241.433 63.65C241.267 61.05 242.3 59.3667 244.533 58.6C245.167 58.4 245.767 58.3 246.333 58.3C248.5 58.3 249.95 59.3833 250.683 61.55C250.883 62.1167 250.983 63.1667 250.983 64.7L250.783 83.15C250.783 86.3167 249.533 88.3167 247.033 89.15C246.4 89.3833 245.767 89.5 245.133 89.5C243.4 89.5 241.9 88.6333 240.633 86.9L235.333 79.85C235.533 81.85 235.683 84.7667 235.783 88.6C235.917 91.5 234.683 93.4 232.083 94.3C231.45 94.5333 230.833 94.65 230.233 94.65C228.467 94.65 226.867 93.7167 225.433 91.85L214.033 77.55C213 76.25 212.333 75.1333 212.033 74.2C211.867 73.8 211.783 73.3833 211.783 72.95C211.783 71.75 212.317 70.7 213.383 69.8C214.417 68.9 215.55 68.45 216.783 68.45C218.35 68.45 219.683 69.2167 220.783 70.75L227.183 79.6C226.95 77.3 226.767 73.7833 226.633 69.05C226.467 66.25 227.55 64.45 229.883 63.65C230.483 63.45 231.067 63.35 231.633 63.35C233.167 63.35 234.55 64.2 235.783 65.9L242.133 74.5Z" fill="#E61B44"/>
<path d="M112.588 75.05C111.988 71.8833 111.138 66.2167 110.038 58.05C110.005 57.8167 109.988 57.5667 109.988 57.3C109.988 56.1333 110.321 55 110.988 53.9C111.688 52.8 112.655 51.9833 113.888 51.45C114.688 51.0833 115.538 50.9 116.438 50.9C118.671 50.9 120.355 51.75 121.488 53.45C124.321 57.4167 127.171 61.4 130.038 65.4C133.471 70.1667 135.971 74.35 137.538 77.95C137.871 78.65 138.038 79.35 138.038 80.05C138.038 82.05 137.055 83.4833 135.088 84.35C134.188 84.75 133.371 84.95 132.638 84.95C131.038 84.95 129.671 84.0667 128.538 82.3L120.188 69C120.888 72.6667 121.771 78.2167 122.838 85.65C122.871 85.95 122.888 86.25 122.888 86.55C122.888 88.7167 121.805 90.2833 119.638 91.25C118.805 91.6167 117.988 91.8 117.188 91.8C115.688 91.8 114.405 91.1667 113.338 89.9L102.388 76.85C103.521 80.15 105.055 85.1667 106.988 91.9C107.188 92.6333 107.288 93.3 107.288 93.9C107.288 95.8 106.238 97.2167 104.138 98.15C103.471 98.45 102.771 98.6 102.038 98.6C100.038 98.6 98.6046 97.6333 97.7379 95.7C96.1379 92.1 94.7046 87.4333 93.4379 81.7C92.3712 76.9 91.3046 72.1 90.2379 67.3C90.1379 66.9333 90.0879 66.5333 90.0879 66.1C90.0879 64.9667 90.4212 63.8667 91.0879 62.8C91.7546 61.7 92.6879 60.8833 93.8879 60.35C94.7212 59.9833 95.5879 59.8 96.4879 59.8C98.5212 59.8 100.155 60.5167 101.388 61.95L112.588 75.05Z" fill="#FFCC3F"/>
<path d="M170.018 92.5C168.585 92.4 167.451 91.8333 166.618 90.8C165.818 89.7333 165.468 88.4333 165.568 86.9L167.718 56.2C167.818 54.7 168.351 53.4833 169.318 52.55C170.285 51.6167 171.485 51.2 172.918 51.3C174.351 51.4 175.468 51.9833 176.268 53.05C177.101 54.0833 177.468 55.3667 177.368 56.9L175.218 87.6C175.118 89.1 174.585 90.3167 173.618 91.25C172.651 92.1833 171.451 92.6 170.018 92.5Z" fill="#2571CE"/>
<path d="M201.272 92.85C197.106 93.05 193.606 91.7167 190.772 88.85C188.039 86.0833 186.556 82.6333 186.322 78.5C186.122 74.4333 187.256 70.85 189.722 67.75C192.289 64.5167 195.606 62.7833 199.672 62.55C203.772 62.35 207.256 63.7333 210.122 66.7C212.889 69.5 214.389 72.9333 214.622 77C214.822 81.1667 213.722 84.75 211.322 87.75C208.789 90.9167 205.439 92.6167 201.272 92.85ZM200.172 71.65C198.806 71.7167 197.739 72.3667 196.972 73.6C196.239 74.8 195.922 76.2667 196.022 78C196.122 79.6667 196.606 81.0667 197.472 82.2C198.339 83.3 199.439 83.8167 200.772 83.75C202.139 83.6833 203.189 83.05 203.922 81.85C204.689 80.65 205.022 79.2 204.922 77.5C204.822 75.8 204.339 74.3833 203.472 73.25C202.639 72.1167 201.539 71.5833 200.172 71.65Z" fill="#C60A3A"/>
</svg>
